<svg height="151" viewBox="0 0 151 151" width="151" xmlns="http://www.w3.org/2000/svg"><g fill="#fff" stroke="#1e32fa" stroke-width="6"><circle cx="75.5" cy="75.5" r="69.5" stroke="none"/><circle cx="75.5" cy="75.5" fill="none" r="72.5"/></g><path d="m67.078 199.81v21.474h-14.314v21.476h-28.634v-42.95z" fill="#1e32fa" fill-rule="evenodd" transform="translate(9.87 -123.862)"/><circle cx="55.613" cy="54.5" fill="#f9c732" r="21.5"/><g fill-rule="evenodd"><path d="m244.48 201.14v2.9a14.5 14.5 0 0 1 14.5 14.5h2.9a17.407 17.407 0 0 0 -17.4-17.4z" fill="#231f20" transform="translate(-158.102 -124.876)"/><path d="m244.5 225.57v2.9a8.7 8.7 0 0 1 8.7 8.7h2.9a11.6 11.6 0 0 0 -11.6-11.6z" fill="#231f20" transform="translate(-158.118 -143.499)"/><path d="m244.5 250v5.8h5.8a5.8 5.8 0 0 0 -5.8-5.8z" fill="#231f20" transform="translate(-158.118 -162.122)"/><path d="m265.238 228.4-1.324-.765-10.119 17.538h-23.055v2.9h24.324v-2.037z" fill="#f9c732" transform="translate(-147.628 -145.069)"/><path d="m208.41 313.15v4.119h2.085v11.895h2.132v-11.895h28.023v11.895h1.961v-11.895h1.911v-4.119z" fill="#ef4632" transform="translate(-130.606 -210.261)"/></g></svg>