<svg height="153" viewBox="0 0 153 153" width="153" xmlns="http://www.w3.org/2000/svg"><g fill="#fff" stroke="#1e32fa" stroke-width="7"><circle cx="76.5" cy="76.5" r="69.5" stroke="none"/><circle cx="76.5" cy="76.5" fill="none" r="73"/></g><path d="m28.627 44.05h95.451v55.337h-95.451z" fill="#fff"/><path d="m110.12 71.08v-59.44h-100.12v59.44h38.349v7.314h-7.9v6.149h39.516v-6.149h-7.9v-7.314zm-95.736-55.048h91.644v50.656h-91.644z" fill="#1e32fa" transform="translate(16 30.36)"/><path d="m31.846 55.176h12.394v12.394h-12.394z" fill="#f9c732"/><ellipse cx="38.188" cy="60.941" rx="3.459" ry="3.459"/><path d="m45.622 99.832v-.29a2.9 2.9 0 0 0 -2.882-2.882h-5.478a2.9 2.9 0 0 0 -2.882 2.882v.29z" fill="#1e32f9" transform="translate(-1.956 -32.259)"/><path d="m81.427 67.573h12.394v12.394h-12.394z" fill="#f9c732"/><ellipse cx="87.768" cy="73.337" rx="3.459" ry="3.459"/><path d="m233.8 146.88v-.287a2.9 2.9 0 0 0 -2.882-2.882h-5.478a2.9 2.9 0 0 0 -2.882 2.882v.287z" fill="#1e32f9" transform="translate(-140.556 -66.913)"/><path d="m44.243 55.176h12.394v12.394h-12.394z"/><ellipse cx="50.584" cy="60.941" fill="#f9c732" rx="3.459" ry="3.459"/><path d="m92.672 99.832v-.29a2.9 2.9 0 0 0 -2.882-2.882h-5.478a2.9 2.9 0 0 0 -2.882 2.882v.29z" fill="#ef4632" transform="translate(-36.61 -32.259)"/><path d="m69.033 67.573h12.394v12.394h-12.394z"/><ellipse cx="75.375" cy="73.337" fill="#f9c732" rx="3.459" ry="3.459"/><path d="m186.762 146.88v-.287a2.9 2.9 0 0 0 -2.885-2.882h-5.477a2.9 2.9 0 0 0 -2.882 2.882v.287z" fill="#ef4632" transform="translate(-105.91 -66.913)"/><path d="m56.637 55.176h12.394v12.394h-12.394z" fill="#ef4632"/><ellipse cx="62.978" cy="60.941" fill="#e6e6e6" rx="3.459" ry="3.459"/><path d="m139.712 99.832v-.29a2.9 2.9 0 0 0 -2.882-2.882h-5.478a2.9 2.9 0 0 0 -2.882 2.882v.29z" transform="translate(-71.256 -32.259)"/><path d="m93.823 67.573h12.394v12.394h-12.394z" fill="#ef4632"/><ellipse cx="100.165" cy="73.337" fill="#e6e6e6" rx="3.459" ry="3.459"/><path d="m280.852 146.88v-.287a2.9 2.9 0 0 0 -2.885-2.882h-5.475a2.9 2.9 0 0 0 -2.882 2.882v.287z" transform="translate(-175.21 -66.913)"/><path d="m69.033 55.176h12.394v12.394h-12.394z" fill="#e6e6e6"/><ellipse cx="75.375" cy="60.941" fill="#1e32f9" rx="3.459" ry="3.459"/><path d="m186.762 99.832v-.29a2.9 2.9 0 0 0 -2.885-2.882h-5.477a2.9 2.9 0 0 0 -2.882 2.882v.29z" fill="#f9c732" transform="translate(-105.91 -32.259)"/><path d="m31.846 67.573h12.394v12.394h-12.394z" fill="#e6e6e6"/><ellipse cx="38.188" cy="73.337" fill="#1e32f9" rx="3.459" ry="3.459"/><path d="m45.622 146.88v-.287a2.9 2.9 0 0 0 -2.882-2.882h-5.478a2.9 2.9 0 0 0 -2.882 2.882v.287z" fill="#f9c732" transform="translate(-1.956 -66.913)"/><path d="m81.427 55.176h12.394v12.394h-12.394z" fill="#1e32f9"/><ellipse cx="87.768" cy="60.941" fill="#e6e6e6" rx="3.459" ry="3.459"/><path d="m233.8 99.832v-.29a2.9 2.9 0 0 0 -2.882-2.882h-5.478a2.9 2.9 0 0 0 -2.882 2.882v.29z" transform="translate(-140.556 -32.259)"/><path d="m56.637 67.573h12.394v12.394h-12.394z" fill="#1e32f9"/><ellipse cx="62.978" cy="73.337" fill="#e6e6e6" rx="3.459" ry="3.459"/><path d="m139.712 146.88v-.287a2.9 2.9 0 0 0 -2.882-2.882h-5.478a2.9 2.9 0 0 0 -2.882 2.882v.287z" transform="translate(-71.256 -66.913)"/><path d="m93.823 55.176h12.394v12.394h-12.394z" fill="#f9c732"/><ellipse cx="100.165" cy="60.941" fill="#1e32f9" rx="3.459" ry="3.459"/><path d="m280.852 99.832v-.29a2.9 2.9 0 0 0 -2.885-2.882h-5.475a2.9 2.9 0 0 0 -2.882 2.882v.29z" fill="#e6e6e6" transform="translate(-175.21 -32.259)"/><path d="m44.243 67.573h12.394v12.394h-12.394z" fill="#f9c732"/><ellipse cx="50.584" cy="73.337" fill="#1e32f9" rx="3.459" ry="3.459"/><path d="m92.672 146.88v-.287a2.9 2.9 0 0 0 -2.882-2.882h-5.478a2.9 2.9 0 0 0 -2.882 2.882v.287z" fill="#e6e6e6" transform="translate(-36.61 -66.913)"/><path d="m107.097 55.176h13.176v24.888h-13.176z" fill="#e6e6e6"/><path d="m107.975 56.349h11.419v1.465h-11.419z"/><path d="m31.846 88.848h8.492v1.465h-8.492z"/><path d="m31.846 91.191h12.296v1.465h-12.296z"/><path d="m31.846 93.533h6.149v1.465h-6.149z"/><path d="m107.975 58.399h11.419v1.465h-11.419z"/><path d="m110.902 65.718h8.492v1.465h-8.492z"/><path d="m107.975 68.938h9.954v1.465h-9.954z"/><path d="m107.975 70.987h6.442v1.465h-6.442z"/><path d="m107.975 76.552h11.419v2.05h-11.419z" fill="#f2f2f2"/><path d="m112.952 63.668h6.442v1.465h-6.442z"/><path d="m107.975 60.448h4.977v1.465h-4.977z"/><path d="m31.846 48.442h26.938v4.685h-26.938z"/><path d="m110.317 88.848h9.954v5.857h-9.954z"/><path d="m32.434 82.406h69.686v4.392h-69.686z" fill="#e6e6e6"/></svg>