<svg height="108" viewBox="0 0 183 108" width="183" xmlns="http://www.w3.org/2000/svg" xmlns:xlink="http://www.w3.org/1999/xlink"><clipPath id="a"><path d="m227 1351h183v108h-183z"/></clipPath><clipPath id="b"><path d="m0 0h169.297v169.297h-169.297z"/></clipPath><path d="m0 0h183v108h-183z" fill="#fff"/><g clip-path="url(#a)" transform="translate(-227 -1351)"><g transform="translate(234.076 1321.576)"><g clip-path="url(#b)"><path d="m0 0h169.297v169.297h-169.297z" fill="#fff"/></g><path d="m0 0h169.058v169.058h-169.058z" fill="#fff"/><path d="m0 0h86.765v43.413h-86.765z" fill="#1e32fa" transform="translate(40.55 41.087)"/><g fill-rule="evenodd"><path d="m46.212 73.078h-3.339v13.358h6.679v-13.358z" fill="#f04632" transform="translate(24.333 41.476)"/><path d="m29.208 73.078h-3.34v13.358h6.679v-13.358z" fill="#f04632" transform="translate(14.682 41.476)"/><path d="m63.255 73.078h-3.34v13.358h6.679v-13.358z" fill="#f04632" transform="translate(34.006 41.476)"/><path d="m80.3 73.078h-3.342v13.358h6.679v-13.358z" fill="#f04632" transform="translate(43.679 41.476)"/><path d="m39.487 41.274a11.449 11.449 0 1 0 11.45-11.449 11.452 11.452 0 0 0 -11.45 11.449" fill="#fac832" transform="translate(22.411 16.927)"/><path d="m62.326 44.433v11.39h-7.573v11.449h-15.266v-22.839z" fill="#f04632" transform="translate(22.411 25.218)"/><path d="m67.355 40.307-2.683-2.683-10.615 10.676 2.683 2.624 2.624 2.676 10.675-10.67z" fill="#fac832" transform="translate(30.681 21.354)"/><path d="m30.167 70.178a9.959 9.959 0 1 0 9.959-9.959 9.976 9.976 0 0 0 -9.959 9.959" fill="#fac832" transform="translate(17.122 34.179)"/></g><path d="m0 0h20.037v20.037h-20.037z" transform="translate(47.229 107.875)"/><path d="m47.21 70.178a9.959 9.959 0 1 0 9.959-9.959 9.976 9.976 0 0 0 -9.959 9.959" fill="#fac832" fill-rule="evenodd" transform="translate(26.794 34.179)"/><path d="m0 0h20.037v20.037h-20.037z" transform="translate(73.885 107.875)"/><path d="m64.252 70.178a9.959 9.959 0 1 0 9.959-9.959 9.976 9.976 0 0 0 -9.959 9.959" fill="#fac832" fill-rule="evenodd" transform="translate(36.467 34.179)"/><path d="m0 0h20.037v20.037h-20.037z" transform="translate(100.6 107.875)"/></g></g></svg>