<svg height="123" viewBox="0 0 175 123" width="175" xmlns="http://www.w3.org/2000/svg" xmlns:xlink="http://www.w3.org/1999/xlink"><clipPath id="a"><path d="m991 2622h163v111h-163z"/></clipPath><g transform="translate(-985 -2606)"><g fill="#fff" stroke="#1e32fa" stroke-width="6"><path d="m991 2612h163v111h-163z" stroke="none"/><path d="m988 2609h169v117h-169z" fill="none"/></g><g clip-path="url(#a)" transform="translate(0 -10)"><g fill="#9c9a9b"><path d="m15.293-41.418.9 1.162.66-.51-1.464-1.892-.517.4c.205.319-.089.7-.453.975l.263.34.612-.474" transform="translate(990.845 2703.205)"/><path d="m17.973-42.742a.62.62 0 0 1 .375-.4c.288-.148.527-.09.634.118s-.031.448-.3.587c-.21.108-.508.137-.6-.029l-.7.36c.3.489.889.412 1.515.09.668-.343 1.044-.868.775-1.393-.227-.443-.731-.5-1.321-.2a1.078 1.078 0 0 0 -.482.441h-.008l-.092-.443 1.274-.654-.226-.44-1.817.942.338 1.347z" transform="translate(990.55 2703.437)"/><path d="m35.013-43.473a1.082 1.082 0 0 0 -.64-.131h-.008l.3-.334 1.278.645.223-.441-1.82-.919-.891 1.065.637.322a.619.619 0 0 1 .541.069c.29.146.382.374.277.582s-.38.239-.653.1c-.211-.107-.41-.33-.329-.5l-.7-.355c-.217.533.189.961.818 1.279.67.339 1.316.334 1.582-.192.224-.444-.025-.886-.617-1.185" transform="translate(988.706 2703.433)"/><path d="m38.165-41.316c-.132.171-.4.185-.665-.02s-.3-.456-.167-.632a.458.458 0 0 1 .635.019c.268.207.326.465.2.633zm.083-1.017c-.531-.411-1.193-.479-1.506-.075-.285.369-.149.913.357 1.3a.93.93 0 0 0 .729.238l.007.006a.567.567 0 0 1 -.844.115.658.658 0 0 1 -.186-.213.259.259 0 0 1 -.022-.229l-.583-.451c-.183.419.026.845.492 1.2a1.228 1.228 0 0 0 1.9-.151 1.159 1.159 0 0 0 -.348-1.748" transform="translate(988.368 2703.207)"/><path d="m8.633-31.568c.42.139.728-.266.973-.688s.429-.868.608-.809c.153.05.126.286.067.462-.084.251-.241.5-.448.413l-.271.818c.526.17.959-.384 1.166-1.009.2-.59.226-1.346-.282-1.514-.427-.142-.733.279-.976.7s-.432.858-.638.789c-.172-.057-.153-.334-.071-.58.114-.347.279-.547.558-.473l.271-.818c-.6-.192-1.044.367-1.283 1.088-.228.69-.264 1.431.326 1.627" transform="translate(991.559 2702.254)"/><path d="m8.276-26.963.066-.859c-.279-.054-.432-.3-.4-.7a.7.7 0 0 1 .785-.711.7.7 0 0 1 .666.823c-.028.36-.178.61-.428.636l-.066.859c.591.023.986-.723 1.04-1.435.077-1-.437-1.687-1.146-1.742s-1.323.549-1.4 1.546c-.064.836.257 1.489.884 1.583" transform="translate(991.647 2701.772)"/><path d="m10.166-23.69-.88.151-.193-1.118.88-.151-.146-.85-2.415.416.146.85.995-.172.193 1.119-.995.172.147.849 2.415-.416-.146-.849" transform="translate(991.644 2701.266)"/><path d="m10.494-19.051a.7.7 0 0 1 -.979-.4.7.7 0 0 1 .35-1 .7.7 0 0 1 .979.4.694.694 0 0 1 -.35 1zm.851-1.224c-.427-.951-1.184-1.257-1.833-.966s-.924 1.06-.5 2.011 1.183 1.256 1.832.965.925-1.059.5-2.011" transform="translate(991.484 2700.775)"/><path d="m13.07-17.165-.522-.686-1.948 1.484 1.457 1.914.437-.332-.934-1.228 1.513-1.152" transform="translate(991.28 2700.376)"/><path d="m14.895-12.915-.569-.489.844-.406.007.006-.282.89zm-2.145-.639.672.577.444-.2.875.752-.131.466.682.586.658-2.665-.664-.571z" transform="translate(991.035 2700.006)"/><path d="m23.092-10.143c.34.07.587.251.571.462l.844.175c.048-.618-.614-1.032-1.286-1.172-.98-.2-1.73.22-1.875.916s.377 1.382 1.354 1.585a1.318 1.318 0 0 0 .968-.125v.272l.544.113.273-1.315-1.361-.282-.1.464.59.122c-.091.209-.4.3-.82.208a.7.7 0 0 1 -.606-.869.7.7 0 0 1 .9-.556" transform="translate(990.057 2699.564)"/><path d="m27.207-8.379-.024-.466 1.62-.082-.025-.494-1.62.083-.022-.428 1.772-.091-.026-.511-2.633.134.125 2.448 2.679-.136-.028-.548-1.819.092" transform="translate(989.496 2699.523)"/><path d="m32.212-11.257.449 1.442h-.009l-1.546-1.1-.845.263.729 2.34.774-.241-.454-1.458h.009l1.551 1.111.845-.263-.729-2.34-.774.241" transform="translate(989.038 2699.652)"/><path d="m36.082-10.995-.245-.4 1.38-.853-.259-.42-1.38.852-.226-.365 1.51-.933-.269-.435-2.243 1.389 1.288 2.085 2.282-1.41-.288-.467-1.549.957" transform="translate(988.572 2699.885)"/><path d="m39-15.807.837 1.745-.007.007-1.751-.824-.633.638 2.474.986.7-.7-.986-2.486z" transform="translate(988.219 2700.216)"/><path d="m42.426-17.107-.4-.242.841-1.387-.423-.256-.844 1.386-.367-.223.92-1.517-.437-.265-1.367 2.255 2.1 1.271 1.391-2.295-.47-.284z" transform="translate(987.887 2700.577)"/><path d="m42.929-22.886 1.446.436v.009l-1.778.665-.255.847 2.347.707.232-.778-1.463-.441v-.009l1.794-.66.255-.847-2.346-.707-.234.776" transform="translate(987.661 2701.039)"/><path d="m45.233-27.733c-.442-.02-.628.454-.749.927s-.176.952-.365.944c-.161-.007-.2-.241-.191-.426.011-.264.1-.543.319-.519l.038-.861c-.553-.02-.818.632-.848 1.289-.028.62.15 1.356.684 1.38.449.02.629-.468.749-.936s.183-.943.4-.934c.182.008.238.28.227.539-.016.366-.12.6-.408.608l-.038.861c.628.023.9-.637.938-1.4.033-.727-.135-1.449-.756-1.476" transform="translate(987.536 2701.503)"/><path d="m43.4-29.015 2.426-.35-.123-.853-2.426.349.123.853" transform="translate(987.555 2701.786)"/><path d="m43.683-31.56c.425-.146.413-.666.355-1.146s-.176-.944.029-1.014c.172-.059.324.173.408.418.119.347.109.6-.157.716l.279.815c.593-.208.609-.924.362-1.643-.236-.688-.656-1.3-1.244-1.1-.419.144-.418.653-.358 1.137s.185.951.006 1.012c-.152.052-.273-.151-.333-.326-.086-.25-.109-.541.107-.6l-.28-.815c-.521.184-.53.887-.316 1.51.2.587.636 1.208 1.142 1.034" transform="translate(987.653 2702.28)"/><path d="m18.089-11.02a.585.585 0 0 0 .115.819.584.584 0 0 0 .819-.115.584.584 0 0 0 -.114-.819.586.586 0 0 0 -.82.115" transform="translate(990.439 2699.624)"/><path d="m12.568-37.466a.585.585 0 0 0 -.128-.817.585.585 0 0 0 -.817.128.585.585 0 0 0 .128.817.585.585 0 0 0 .817-.128" transform="translate(991.176 2702.719)"/><path d="m40.762-38.155a.584.584 0 0 0 .128.817.585.585 0 0 0 .817-.128.584.584 0 0 0 -.128-.817.585.585 0 0 0 -.817.128" transform="translate(987.854 2702.719)"/><path d="m28.363-45.418-.475.744h1.162v-.36h-.458l.254-.379-.254-.391h.45v-.355h-1.154l.475.742" transform="translate(989.309 2703.604)"/><path d="m25.461-45.032h-.286v-.768h.267v-.358h-.956v.358h.265v.775h-.283v.358h.993v-.358" transform="translate(989.699 2703.604)"/><path d="m26.982-45.636h-.6v-.529h-.443v1.491h.443v-.593h.6v.593h.442v-1.491h-.442z" transform="translate(989.531 2703.604)"/><path d="m26.459-47.238a.18.18 0 0 1 .2-.183.18.18 0 0 1 .184.183l.006.527h.827v-.442h-.507v-.113c0-.317-.15-.573-.511-.573a.466.466 0 0 0 -.5.422 1.634 1.634 0 0 0 -.006.174v.09h-.506v.442h.82v-.527" transform="translate(989.565 2703.795)"/><path d="m26.754-44.088a.266.266 0 0 0 -.266.267.266.266 0 0 0 .266.266.266.266 0 0 0 .266-.266.267.267 0 0 0 -.266-.267" transform="translate(989.468 2703.368)"/><path d="m24.279-11.712a18.063 18.063 0 0 1 -18.043-18.043 18.069 18.069 0 0 1 14.686-17.724l.251.31-2.168.827 2.167.829-1.464 1.8 2.292-.366-.076.473a14.073 14.073 0 0 0 -11.7 13.851 14.069 14.069 0 0 0 14.055 14.055 14.069 14.069 0 0 0 14.052-14.055 14.073 14.073 0 0 0 -11.685-13.845l-.063-.464 2.231.358-1.4-1.824 2.109-.806-2.133-.87.223-.275a18.07 18.07 0 0 1 14.711 17.73 18.063 18.063 0 0 1 -18.045 18.039zm-2.647-28.347.325-.551h-1.341l.157-.574a.5.5 0 0 0 -.5-.5.49.49 0 0 0 -.189.038.674.674 0 0 0 .018-.135.33.33 0 0 0 -.33-.33.331.331 0 0 0 -.33.33.691.691 0 0 0 .019.135.49.49 0 0 0 -.189-.038.5.5 0 0 0 -.5.5l.156.574h-.353a.5.5 0 0 0 -.491.4.854.854 0 0 0 -.23-.033.823.823 0 0 0 -.823.823.824.824 0 0 0 .1.392.822.822 0 0 1 .723-.432.821.821 0 0 1 .676.355.746.746 0 0 1 .048.077.815.815 0 0 1 .082.259h-1.668a.823.823 0 0 1 -.823-.822v.53a.823.823 0 0 0 .823.823h1.578a.822.822 0 0 1 -.719.423h-.048a.823.823 0 0 0 .678.356.822.822 0 0 0 .769-.531h2.229a.823.823 0 0 1 .823.822 1.013 1.013 0 0 1 -.21.735l-.205.308-1.4 2.167a.823.823 0 0 1 -1.144.216.842.842 0 0 1 -.218-1.159.884.884 0 0 0 .394-.949.916.916 0 0 0 -1-.768l-.277-.006a3.159 3.159 0 0 1 -3.26-2.876 13.451 13.451 0 0 1 6.846-3.5l-.2 1.218 1.789-1.453.6 1.553v2.4l-2.393-.773zm-7.227 19.147a.289.289 0 0 1 .128-.179l1.721-.972.482.5-.007.006.119.109.089.091h.005l.615.565a.288.288 0 0 1 -.005.4.288.288 0 0 1 -.2.084h-.352l.438.437h.062a1.134 1.134 0 0 0 .807-.334 1.135 1.135 0 0 0 .334-.808 1.14 1.14 0 0 0 -1.076-1.135l-.422-.422 5.488-3.482c-.149 1.668-1.589 3.626-2.947 4.8a2.714 2.714 0 0 0 -.86 1.916 1.8 1.8 0 0 0 .458 1.261.824.824 0 0 0 .906.178l.191-.084-.148-.148a1.446 1.446 0 0 1 -.326-.973 1.647 1.647 0 0 1 .465-1.276l.39.378a2.977 2.977 0 0 0 -.19 1.032 2.367 2.367 0 0 0 .629 1.671c.082.082.951.8 1.316.68l.262-.089-.223-.163a3.536 3.536 0 0 1 -.678-.865 1.9 1.9 0 0 1 -.178-.81 2.1 2.1 0 0 1 .627-1.456c.023-.034.975-2.383 1.46-3.515v.222c0 .267.006.53.006.788 0 1.367-.083 2.58-.684 3.182a2.912 2.912 0 0 1 -1.068.571l.18.212a1.087 1.087 0 0 0 .774.48.662.662 0 0 0 .3-.117 2.53 2.53 0 0 0 .586 1.894 13.436 13.436 0 0 1 -9.196-4.017l-.242-.4a.282.282 0 0 1 -.043-.151.3.3 0 0 1 .007-.066zm-1.046-1.2a.355.355 0 0 1 .1-.241.356.356 0 0 1 .253-.118h.821a1.427 1.427 0 0 0 -.958.748 1.5 1.5 0 0 1 -.213-.38v-.011zm-1.554-10.631 3.484-.649a.548.548 0 0 0 .024.285.544.544 0 0 0 .1.162l-3.428 1.335a.959.959 0 0 0 -.342 1.329.947.947 0 0 0 .592.427.948.948 0 0 0 .721-.117l3.015-1.863a.549.549 0 0 0 .125.257.544.544 0 0 0 .155.114l-2.718 2.483a.96.96 0 0 0 .161 1.363.956.956 0 0 0 1.336-.183l2.163-2.858a.519.519 0 0 0 .2.193.519.519 0 0 0 .147.04l.031.023-1.507 3.035a.931.931 0 0 0 .622 1.178.927.927 0 0 0 1.144-.636l.87-3.042a4.106 4.106 0 0 0 1.181.174 3.281 3.281 0 0 0 .864-.1c0 .549-.006 1.071-.006 1.119l-2.764 3c-.474.389-.646.41-.954.1l-.09-.09-.838.664.114.114a1.652 1.652 0 0 0 1.018.574l-1.171.616-.756-.784a1.14 1.14 0 0 0 -1.136-1.077 1.143 1.143 0 0 0 -1.141 1.141v.06l.437.437v-.346a.286.286 0 0 1 .084-.2.289.289 0 0 1 .408 0l.561.61.09.093.108.116.254.26h-.328a1.128 1.128 0 0 0 -.769-.264 1.135 1.135 0 0 0 -.794.366 1.132 1.132 0 0 0 -.283.574 13.4 13.4 0 0 1 -1.989-7.04 13.46 13.46 0 0 1 .373-3.141.732.732 0 0 0 .634.152zm1.253-4.473a13.653 13.653 0 0 1 1.316-1.672 4.305 4.305 0 0 0 1.47 2.175.515.515 0 0 0 -.222.253.524.524 0 0 0 -.033.218zm2.2 2.006a.554.554 0 0 0 -.121.334.553.553 0 0 0 .062.246l-3.488.007q.23-.592.513-1.155l3.035.568zm10.185 9.995a1 1 0 0 1 .821-.981 1.117 1.117 0 0 0 1.113 1.045h2.243a1.117 1.117 0 0 0 1.113-1.049 1 1 0 0 1 .818.981 3.545 3.545 0 0 1 -3.051 3.464 3.546 3.546 0 0 1 -3.053-3.461zm2.015 4.315a1.047 1.047 0 0 0 -.668.974 1.048 1.048 0 0 0 1.048 1.047h1.32a1.048 1.048 0 0 0 1.048-1.047 1.047 1.047 0 0 0 -.668-.974 4.57 4.57 0 0 0 3.069-4.314 2.049 2.049 0 0 0 -1.76-2.026v-.76l-1.565-1.442v-3h.9v1.27h1.528v-.96h1.122v.96h1.527v-3.394h-1.527v.821h-1.122v-.821h-1.267v-1.041h1.267v-.821h1.122v.821h1.527v-3.077a13.416 13.416 0 0 1 3.4 8.938 13.493 13.493 0 0 1 -13.159 13.464v-7.572a4.583 4.583 0 0 0 2.858 2.954zm-.731-22.1a13.472 13.472 0 0 1 7.338 3.993h-1.233v.92h-1.122v-.92h-1.527v1.27h-.9s.006-1.934.006-1.953a.79.79 0 0 0 -.79-.789.79.79 0 0 0 -.789.789c0 .02.006 10.248.006 10.248l-1.567 1.442v.762a2.053 2.053 0 0 0 -1.549 1.138v-15.609l.524-1.516 1.769 1.438zm-2.427-5.956a2.634 2.634 0 0 1 2.631 2.631 2.634 2.634 0 0 1 -2.631 2.631 2.634 2.634 0 0 1 -2.631-2.631 2.634 2.634 0 0 1 2.631-2.631zm4.12.47.393-.484-2.286.336.362-2.26-1.8 1.46-.827-2.166-.827 2.166-1.8-1.463.365 2.297-2.292-.367.4.491a19.218 19.218 0 0 0 -15.016 18.721 19.208 19.208 0 0 0 19.187 19.187 19.208 19.208 0 0 0 19.186-19.187 19.216 19.216 0 0 0 -15.042-18.73" transform="translate(991.908 2704.224)"/></g><path d="m61.267-32.969c-4.157 0-5.094-2.383-5.094-5.033v-9.06h2.537v8.9c0 1.746.546 2.979 2.733 2.979 1.952 0 2.771-.863 2.771-3.225v-8.65h2.518v8.485c0 3.78-1.991 5.608-5.465 5.608" fill="#dd0860" transform="translate(986.084 2703.707)"/><path d="m78.617-33.2s-4.974-9.08-5.364-9.985c.078 1.191.117 3.37.117 5.033v4.952h-2.459v-13.863h3.223s4.876 8.835 5.366 9.883c-.1-1.4-.136-3.862-.136-5.568v-4.315h2.459v13.863h-3.2" fill="#dd0860" transform="translate(984.403 2703.707)"/><path d="m86.6-33.2h2.537v-13.863h-2.537z" fill="#dd0860" transform="translate(982.615 2703.707)"/><path d="m98.8-33.2h-2.93l-4.586-13.863h2.771l2.557 8.115c.254.78.547 1.705.781 2.712h.039a26.813 26.813 0 0 1 .781-2.876l2.6-7.951h2.6z" fill="#dd0860" transform="translate(982.08 2703.707)"/><path d="m106.918-33.2v-13.863h7.239v2.24h-4.675v3.41h4.438v2.178h-4.438v3.76h4.675v2.28h-7.239" fill="#dd0860" transform="translate(980.297 2703.707)"/><path d="m121.722-44.978a6.821 6.821 0 0 0 -1 .062v4.006a9.036 9.036 0 0 0 .917.041c1.522 0 2.46-.821 2.46-2.116 0-1.336-.781-1.993-2.381-1.993zm2.771 11.772-3.669-5.732h-.1v5.732h-2.537v-13.867c1.034-.062 2.264-.082 3.786-.082 2.908 0 4.782 1.069 4.782 3.9a3.806 3.806 0 0 1 -3.355 3.865c.371.514.741 1.048 1.073 1.521l3.162 4.663h-3.143" fill="#dd0860" transform="translate(979.012 2703.717)"/><path d="m133.3-33a10.36 10.36 0 0 1 -2.694-.328l.156-2.486a8.705 8.705 0 0 0 2.752.493c1.288 0 2.284-.555 2.284-1.828 0-2.65-5.523-1.438-5.523-6 0-2.465 1.854-4.171 5.016-4.171a13.813 13.813 0 0 1 2.382.246l-.137 2.342a8.251 8.251 0 0 0 -2.362-.37c-1.463 0-2.205.7-2.205 1.685 0 2.486 5.543 1.561 5.543 5.9 0 2.609-1.971 4.52-5.211 4.52" fill="#dd0860" transform="translate(977.634 2703.736)"/><path d="m141.888-33.2h2.537v-13.863h-2.537z" fill="#dd0860" transform="translate(976.31 2703.707)"/><path d="m152.665-44.782v11.582h-2.538v-11.582h-3.416v-2.281h9.368v2.281h-3.415" fill="#dd0860" transform="translate(975.76 2703.707)"/><path d="m162.362-48.566-.9-1.5 3.6-2.26 1.089 1.808zm-2.815 14.766v-13.863h7.54v2.24h-4.87v3.41h4.623v2.178h-4.623v3.76h4.87v2.28h-7.54" fill="#dd0860" transform="translate(974.296 2704.307)"/><path d="m60.547-19.943c-.616 0-1.192.021-1.623.062v9.347a9.68 9.68 0 0 0 1.458.1c2.61 0 4.5-1.479 4.5-4.766 0-2.977-1.171-4.743-4.335-4.743zm-.43 11.792c-1.439 0-2.692-.062-3.862-.1v-13.829c1.088-.041 2.774-.1 4.478-.1 4.294 0 7.026 1.911 7.026 6.78 0 4.766-3.122 7.252-7.642 7.252" fill="#dd0860" transform="translate(986.074 2700.87)"/><path d="m71.28-8.223v-13.867h7.54v2.24h-4.869v3.41h4.623v2.178h-4.623v3.76h4.869v2.28h-7.54" fill="#dd0860" transform="translate(984.361 2700.859)"/><path d="m99.927-19.24a10.265 10.265 0 0 0 -3.677-.7 4.445 4.445 0 0 0 -4.705 4.827c0 2.938 1.6 4.664 4.417 4.664a5.926 5.926 0 0 0 1.767-.246v-4.828h2.671v6.615a13.1 13.1 0 0 1 -4.746.863c-4.4 0-7.006-2.589-7.006-6.82 0-4.355 2.958-7.458 7.765-7.458a14.113 14.113 0 0 1 3.924.6l-.411 2.486" fill="#dd0860" transform="translate(982.381 2700.886)"/><path d="m105.112-8.223v-13.867h7.54v2.24h-4.869v3.41h4.623v2.178h-4.623v3.76h4.869v2.28h-7.54" fill="#dd0860" transform="translate(980.503 2700.859)"/><path d="m124.86-8.223s-5.231-9.08-5.642-9.985c.082 1.191.123 3.37.123 5.033v4.951h-2.589v-13.866h3.4s5.128 8.835 5.642 9.882c-.1-1.4-.144-3.862-.144-5.567v-4.315h2.589v13.867z" fill="#dd0860" transform="translate(979.176 2700.859)"/><path d="m137.427-23.573-3.78-1.952 1.13-1.829 3.574 2.26zm-4.581 14.75v-13.867h7.539v2.24h-4.869v3.41h4.623v2.178h-4.623v3.76h4.869v2.28h-7.539" fill="#dd0860" transform="translate(977.341 2701.46)"/><path d="m151.12-8.223h-3.081l-4.828-13.867h2.917l2.691 8.115c.267.78.575 1.705.822 2.712h.041a25.523 25.523 0 0 1 .821-2.876l2.732-7.951h2.732z" fill="#dd0860" transform="translate(976.159 2700.859)"/><path d="m159.582-8.223v-13.867h7.54v2.24h-4.869v3.41h4.623v2.178h-4.623v3.76h4.869v2.28h-7.54" fill="#dd0860" transform="translate(974.293 2700.859)"/></g></g></svg>