<svg height="123" viewBox="0 0 175 123" width="175" xmlns="http://www.w3.org/2000/svg" xmlns:xlink="http://www.w3.org/1999/xlink"><clipPath id="a"><path d="m602 2622h141v96h-141z"/></clipPath><g transform="translate(-596 -2606)"><g fill="#fff" stroke="#1e32fa" stroke-width="6"><path d="m602 2612h163v111h-163z" stroke="none"/><path d="m599 2609h169v117h-169z" fill="none"/></g><g clip-path="url(#a)" transform="translate(8 -4)"><path d="m43.944 44.345h3.122a3.193 3.193 0 0 1 2.031.611 2.121 2.121 0 0 1 .153 3.079c-.153.131-.328.262-.48.371a2.212 2.212 0 0 1 1.419 1.266 2.306 2.306 0 0 1 -.5 2.4 3.7 3.7 0 0 1 -2.424.764h-4.129v-8.45a5.011 5.011 0 0 1 .808-.044m37.272 8.472h-.916v-8.45h1.878v8.45h-.961m-54.654-8.469h3.013a3.271 3.271 0 0 1 2.62 1.223 3.13 3.13 0 0 1 .044 3.341 3.322 3.322 0 0 1 -2.577 1.332h-1.79v2.559h-1.873c-.022-2.817 0-5.655 0-8.472a4.394 4.394 0 0 0 .568.022m25.263 8.472c-.022-2.817 0-5.655 0-8.472h1.869v6.747h4.214v1.7h-3.882c-.721.022-1.463.022-2.205.022m38.124-3.3v-5.174h1.856v8.455h-1.573c-.437-.48-.808-1.026-1.2-1.528-.961-1.266-1.921-2.533-2.882-3.777v5.328h-1.857c-.022-2.817 0-5.655 0-8.472h1.747c1.288 1.725 2.6 3.45 3.908 5.175m-14.739-1.84h1.135v-3.319h1.878v8.472h-1.877v-3.406h-3.385c0 1.135.022 2.271 0 3.406h-1.856v-8.45h1.878v3.319c.721-.022 1.463-.022 2.227-.022m-35.525-3.341h1.572c-.022 1.507 0 3.035 0 4.542a4.281 4.281 0 0 1 -.764 2.817 3.348 3.348 0 0 1 -2.162 1.179 5.04 5.04 0 0 1 -.808.066 4.6 4.6 0 0 1 -1.7-.306 2.948 2.948 0 0 1 -1.572-1.507 5.168 5.168 0 0 1 -.393-2.227v-4.564h1.9v4.8a2.154 2.154 0 0 0 .59 1.616 1.905 1.905 0 0 0 1.223.437 1.657 1.657 0 0 0 1.572-.917 2.9 2.9 0 0 0 .218-1.223v-4.735a1.653 1.653 0 0 0 .328.022m19.71 8.472c-.022-2.817 0-5.655 0-8.472h1.856c-.022 2.817 0 5.633 0 8.45h-1.045c-.284.022-.546.022-.808.022m6.987-1.55a1.346 1.346 0 0 0 1.026-.349.678.678 0 0 0 -.218-1.07c-.961-.5-2.118-.524-3.057-1.092a1.977 1.977 0 0 1 -.941-1.156 2.639 2.639 0 0 1 .437-2.38 3.069 3.069 0 0 1 2.363-.984h.175a4.941 4.941 0 0 1 3.035 1.07c-.328.48-.655.961-.983 1.419a4.169 4.169 0 0 0 -2.118-.83h-.065a1.377 1.377 0 0 0 -.873.262.68.68 0 0 0 .087 1.07 5.648 5.648 0 0 0 1.441.5 4.928 4.928 0 0 1 2.183 1.026 2.459 2.459 0 0 1 .415 2.467 2.524 2.524 0 0 1 -1.921 1.594 4.453 4.453 0 0 1 -1.07.109 5.454 5.454 0 0 1 -3.581-1.354c.349-.459.742-.9 1.114-1.354a4.178 4.178 0 0 0 2.249 1.026 1.547 1.547 0 0 0 .306.022m31.486-7.053h.153a4.752 4.752 0 0 1 2.38.59c.284.175.546.371.808.568l-1.179 1.441a3.269 3.269 0 0 0 -2.052-.852h-.218a2.494 2.494 0 0 0 -2.336 2.162 2.707 2.707 0 0 0 1 2.664 2.656 2.656 0 0 0 1.55.48 3.265 3.265 0 0 0 1.681-.48v-1.219h-1.857v-1.616h3.668v3.712a5.562 5.562 0 0 1 -3.6 1.332 4.916 4.916 0 0 1 -1.856-.349 4.129 4.129 0 0 1 -2.404-2.643 4.535 4.535 0 0 1 .677-4.018 4.333 4.333 0 0 1 3.472-1.725.12.12 0 0 1 .109-.044m-84.719-8.6a.906.906 0 0 0 .852-.48 1.678 1.678 0 0 0 .131-.873 1.768 1.768 0 0 0 1.092-.306 1.335 1.335 0 0 0 .306-1.07 1.485 1.485 0 0 0 1.245-.546 1.25 1.25 0 0 0 -.153-1.2h6a19.252 19.252 0 0 1 -2.227 9.127 19.088 19.088 0 0 1 -7.184 7.424 20.229 20.229 0 0 1 -5.066-4.28 19 19 0 0 1 -4.363-12.296h5.873a1.2 1.2 0 0 0 -.153 1.2 1.618 1.618 0 0 0 1.245.546 1.381 1.381 0 0 0 .328 1.048 1.923 1.923 0 0 0 1.092.306 1.439 1.439 0 0 0 .131.852.854.854 0 0 0 .852.546m64.652 6.027h-2.271v-17.6h3.887c.022 2.686-.022 5.371.022 8.057-.044 3.188-.022 6.376-.022 9.542-.546-.022-1.07 0-1.616 0m36.617-17.621v3.472h-9.411v3.559h4.28a3.735 3.735 0 0 0 .852-.066c.393 0 .808-.022 1.2-.022h1.965v3.541h-8.3v3.668h9.52v3.472h-13.425v-17.6h8.865c1.507-.022 2.97-.022 4.454-.022m-69.479 0h1.441v10.065a4.9 4.9 0 0 0 .873 2.97 3.414 3.414 0 0 0 2.271 1.223c.218.022.437.044.655.044a3.905 3.905 0 0 0 2.249-.633 3.335 3.335 0 0 0 1.332-2.074 11.393 11.393 0 0 0 .153-2.86c.022-2.926 0-5.83 0-8.756h3.908v9.979a9.253 9.253 0 0 1 -1.266 4.935 6.211 6.211 0 0 1 -3.275 2.489 9.559 9.559 0 0 1 -3.144.48 11.735 11.735 0 0 1 -1.528-.087 6.95 6.95 0 0 1 -4.17-1.943 7.153 7.153 0 0 1 -1.878-4.28c-.131-1.07-.066-2.162-.109-3.253.044-2.773 0-5.546.022-8.319h1.856a5.722 5.722 0 0 0 .611.022m49.412 10.805v-10.808h3.821v17.6h-3.319c-2.839-3.712-5.655-7.424-8.494-11.136v11.135h-3.821c0-3.253.022-6.485-.022-9.738.044-2.62 0-5.24.022-7.882h3.406l.284.131q4.061 5.371 8.123 10.7m-77.995-4.063h-12.666v-6.747h19v6.747zm13.6 10.852h-4.08v-17.6h7.992a8.354 8.354 0 0 1 2.926.437 4.726 4.726 0 0 1 2.358 1.7 4.567 4.567 0 0 1 .5 3.908 4.311 4.311 0 0 1 -2.052 2.38 5.037 5.037 0 0 1 2.729 2.1 5.022 5.022 0 0 1 .393 3.428 4.284 4.284 0 0 1 -2.358 2.882 9.213 9.213 0 0 1 -3.756.808c-1.55-.044-3.1-.044-4.651-.044m107.67-3.165a4.128 4.128 0 0 0 1.266-.175 1.729 1.729 0 0 0 1.2-1.026 1.5 1.5 0 0 0 -.284-1.441 4.146 4.146 0 0 0 -1.57-.808 45.65 45.65 0 0 1 -4.542-1.419 4.889 4.889 0 0 1 -2.183-1.681 5.086 5.086 0 0 1 -.721-2.991 4.856 4.856 0 0 1 1.725-3.668 6.725 6.725 0 0 1 4.367-1.463h.262a10.249 10.249 0 0 1 6.376 2.222c-.677.983-1.354 1.943-2.009 2.926a9.007 9.007 0 0 0 -4.17-1.725c-.131 0-.262-.022-.415-.022a2.749 2.749 0 0 0 -1.79.524 1.439 1.439 0 0 0 -.2 1.9 2.792 2.792 0 0 0 1.266.764 45.3 45.3 0 0 1 5.044 1.638 5.088 5.088 0 0 1 2.336 2.052 5.5 5.5 0 0 1 .393 3.45 4.824 4.824 0 0 1 -2.074 3.188 7.748 7.748 0 0 1 -4.28 1.157c-.284 0-.59-.022-.873-.044a11.2 11.2 0 0 1 -6.638-2.795c.764-.939 1.55-1.834 2.314-2.773a8.85 8.85 0 0 0 3.887 2.009 4.224 4.224 0 0 0 1.31.2m-14.542 0a3.228 3.228 0 0 0 1.943-.524 1.454 1.454 0 0 0 .131-2.205 4.9 4.9 0 0 0 -1.7-.808 26.589 26.589 0 0 1 -4.825-1.594 4.218 4.218 0 0 1 -1.812-1.681 5.194 5.194 0 0 1 -.568-2.926 4.876 4.876 0 0 1 1.812-3.581 6.758 6.758 0 0 1 4.3-1.376h.262a10.188 10.188 0 0 1 6.354 2.227l-2.029 2.949a8.835 8.835 0 0 0 -4.149-1.725c-.131 0-.284-.022-.437-.022a2.749 2.749 0 0 0 -1.79.524 1.46 1.46 0 0 0 -.306 1.769 2.488 2.488 0 0 0 1.2.852c1.572.611 3.275.83 4.825 1.507a5.531 5.531 0 0 1 2.6 2.074 5.263 5.263 0 0 1 .524 3.363 4.874 4.874 0 0 1 -1.921 3.3 7.557 7.557 0 0 1 -4.476 1.288 4.748 4.748 0 0 1 -.568-.022 11.277 11.277 0 0 1 -6.922-2.795c.764-.917 1.528-1.856 2.314-2.773a8.551 8.551 0 0 0 4.585 2.118 3.173 3.173 0 0 0 .655.066m-56.2 0a3.428 3.428 0 0 0 1.9-.48 1.437 1.437 0 0 0 .175-2.227 4.836 4.836 0 0 0 -1.616-.786 32.046 32.046 0 0 1 -4.716-1.507 4.547 4.547 0 0 1 -2.052-1.79 4.956 4.956 0 0 1 -.568-2.62 4.83 4.83 0 0 1 1.441-3.515 6.342 6.342 0 0 1 3.515-1.638 8.8 8.8 0 0 1 1.31-.087 10.15 10.15 0 0 1 6.441 2.249l-2.032 2.947a8.862 8.862 0 0 0 -3.974-1.7 5.768 5.768 0 0 0 -.633-.044 2.731 2.731 0 0 0 -1.7.48 1.408 1.408 0 0 0 .022 2.205 5.5 5.5 0 0 0 1.507.677c1.135.371 2.336.59 3.472 1a7.54 7.54 0 0 1 2.031.961 5.045 5.045 0 0 1 1.463 1.79 6 6 0 0 1 .262 3.341 4.736 4.736 0 0 1 -2.052 3.057 7.642 7.642 0 0 1 -4.3 1.157h-.415a11.24 11.24 0 0 1 -7.081-2.824c.764-.917 1.55-1.834 2.314-2.773a8.721 8.721 0 0 0 4.432 2.1c.262 0 .546.022.852.022m-27.839-34.349h1.637v17.515h-3.89v-7.009h-7.1v7.009h-3.835v-7.009h-3.8v-3.581h3.8v-6.925h3.865v6.922h7.07v-6.922h2.249m46.751 12.209c1.026-2.577 1.965-5.175 2.926-7.773.546-1.485 1.092-2.948 1.638-4.432h4.192c-2.356 5.896-4.737 11.769-7.073 17.642h-3.428q-3.57-8.81-7.1-17.664h4.28c1.31 3.537 2.62 7.053 3.93 10.59a16.832 16.832 0 0 1 .633 1.638m30.092-12.21h4.039a7.79 7.79 0 0 1 4.563 1.245 5.066 5.066 0 0 1 2.031 3.384 6.6 6.6 0 0 1 -.742 4.411 5.664 5.664 0 0 1 -2.882 2.249c1.419 2.074 2.839 4.17 4.28 6.245h-4.542c-1.245-1.856-2.489-3.734-3.734-5.59h-2.991c-.044 1.856-.022 3.734-.022 5.59h-3.89v-17.509c1.288-.022 2.6-.022 3.887-.022m-47.1 0h.917a10.936 10.936 0 0 1 2.533.218 5.8 5.8 0 0 1 3.477 2.079 6 6 0 0 1 1.026 4.17 5.465 5.465 0 0 1 -1.332 3.253 5.98 5.98 0 0 1 -2.358 1.572 16.986 16.986 0 0 1 1.026 1.528c1.07 1.572 2.162 3.144 3.232 4.716h-4.542c-1.245-1.856-2.489-3.734-3.756-5.59h-3.01v5.59h-3.846v-17.539h6.638m32.185-.109h.24c.48-.022.983-.022 1.463-.022h.393q2.162 5.077 4.323 10.175c.218.546.5 1.048.721 1.594.786 1.987 1.659 3.93 2.489 5.917h-4.061c-.524-1.31-1.07-2.6-1.594-3.908h-7.381c-.524 1.31-1.07 2.62-1.594 3.93h-3.952l1.834-4.323c.306-.655.5-1.332.808-1.987.415-.808.742-1.659 1.092-2.511 1.242-2.944 2.511-5.87 3.756-8.818a3.538 3.538 0 0 1 .48-.022 3.865 3.865 0 0 1 .5.022 1.637 1.637 0 0 1 .48-.044m-49.803-.021h.568c.24 0 .48-.022.742-.022.24 0 .5 0 .742.022 2.511 5.874 5 11.747 7.511 17.643h-4.034c-.524-1.31-1.07-2.62-1.594-3.93h-7.38c-.524 1.31-1.07 2.6-1.594 3.908h-4c2.511-5.874 5-11.769 7.511-17.643.218 0 .415-.022.633-.022h.459a1.415 1.415 0 0 0 .437.044" fill="#fff" transform="translate(598.298 2641.667)"/><path d="m56.694 14.282h-1.725c.764-1.856 1.528-3.734 2.293-5.59.808 1.834 1.528 3.734 2.314 5.59zm1.681-10.328c-.24 0-.48 0-.742.022h-1.485a6.136 6.136 0 0 0 -.633.024c-2.515 5.871-5.001 11.745-7.515 17.64h4c.524-1.31 1.07-2.62 1.594-3.908h7.38c.546 1.31 1.07 2.62 1.594 3.93h4.061c-2.489-5.874-5-11.769-7.511-17.643a4.457 4.457 0 0 0 -.742-.066" fill="#6c1b12" transform="translate(592.404 2641.664)"/><path d="m114.432 14.275h-1.965c.764-1.878 1.528-3.756 2.314-5.612.764 1.878 1.528 3.734 2.293 5.612zm1.768-10.306c-.48 0-.983 0-1.463.022h-.24a3.865 3.865 0 0 1 -.5-.022c-.175 0-.328-.022-.5-.022a3.538 3.538 0 0 0 -.48.022c-1.245 2.948-2.511 5.874-3.756 8.821-.371.83-.7 1.681-1.114 2.511-.306.655-.5 1.332-.808 1.987l-1.839 4.324h3.952c.524-1.31 1.07-2.62 1.594-3.93h7.38c.524 1.31 1.07 2.6 1.594 3.908h4.061c-.83-1.965-1.7-3.93-2.489-5.917-.2-.546-.5-1.048-.721-1.594q-2.159-5.079-4.321-10.179a.593.593 0 0 1 -.349.066" fill="#6c1b12" transform="translate(584.755 2641.67)"/><path d="m151.908 18.157v-10.525h3.166a5.193 5.193 0 0 1 3.926 1.813 5.8 5.8 0 0 1 .983 4.913 4.829 4.829 0 0 1 -2.38 3.144 6.111 6.111 0 0 1 -2.708.655h-2.991m2.646-14.127h-1.594c-.066 0-.131.022-.2.022h-.109a8.414 8.414 0 0 1 -1.047.048h-3.537v17.507h7.1a9.907 9.907 0 0 0 4.957-1.376 8.376 8.376 0 0 0 3.275-3.581 9.306 9.306 0 0 0 .83-3.166v-1.31a8.5 8.5 0 0 0 -1.769-4.694 8.66 8.66 0 0 0 -4.389-2.948c-.568-.175-1.157-.24-1.725-.437h-.066c-.59-.044-1.157-.066-1.725-.066" fill="#6c1b12" transform="translate(579.092 2641.654)"/><path d="m43.537 4.13h-3.887v6.922h-7.074v-6.922h-3.843v6.922h-3.8v3.581h3.8v7.009h3.843v-7.009h7.1v7.009h3.887c-.022-5.83-.022-11.682-.022-17.512" fill="#6c1b12" transform="translate(595.473 2641.64)"/><path d="m75.971 12.646h-1v-5h4.039a3.111 3.111 0 0 1 2.162.786 2.653 2.653 0 0 1 .568 2.271 2.3 2.3 0 0 1 -1.288 1.616 4.3 4.3 0 0 1 -1.965.328h-2.516m2.707-8.517h-7.554v17.512h3.865v-5.59h3.011c1.245 1.856 2.489 3.734 3.756 5.59h4.544c-1.07-1.572-2.14-3.144-3.232-4.716a14.558 14.558 0 0 0 -1.049-1.526 5.757 5.757 0 0 0 2.358-1.572 5.41 5.41 0 0 0 1.332-3.253 6 6 0 0 0 -1.026-4.175 5.8 5.8 0 0 0 -3.472-2.074 12.267 12.267 0 0 0 -2.533-.2" fill="#6c1b12" transform="translate(589.328 2641.64)"/><path d="m103.291 4.127h-1.659c-.546 1.485-1.092 2.948-1.638 4.432-.961 2.6-1.9 5.2-2.926 7.773a16.83 16.83 0 0 0 -.633-1.638c-1.31-3.537-2.62-7.053-3.93-10.59h-4.28c2.358 5.9 4.716 11.769 7.1 17.664h3.428c2.336-5.9 4.716-11.769 7.074-17.643h-2.533" fill="#6c1b12" transform="translate(587.053 2641.643)"/><path d="m133.357 7.646h3.232a3.2 3.2 0 0 1 2.1.786 2.38 2.38 0 0 1 .633 1.812 2.25 2.25 0 0 1 -.808 1.747 3.4 3.4 0 0 1 -2.184.655h-3.843v-5h.873m3.188-3.515h-7.948v17.511h3.887c0-1.856-.022-3.734.022-5.59h2.991c1.245 1.856 2.489 3.734 3.734 5.59h4.542c-1.419-2.074-2.86-4.17-4.28-6.245a5.664 5.664 0 0 0 2.882-2.249 6.315 6.315 0 0 0 .742-4.411 5.066 5.066 0 0 0 -2.031-3.384 7.822 7.822 0 0 0 -4.542-1.223" fill="#6c1b12" transform="translate(581.682 2641.64)"/><path d="m75.581 8.182v5h3.559a4.6 4.6 0 0 0 1.965-.328 2.215 2.215 0 0 0 1.288-1.616 2.586 2.586 0 0 0 -.568-2.271 3.277 3.277 0 0 0 -2.162-.808h-2.815c-.459.022-.873.022-1.266.022" fill="#fff" transform="translate(588.735 2641.104)"/><path d="m135.7 8.185h-2.6v5h3.843a3.4 3.4 0 0 0 2.183-.655 2.218 2.218 0 0 0 .808-1.747 2.38 2.38 0 0 0 -.633-1.812 3.157 3.157 0 0 0 -2.1-.786z" fill="#fff" transform="translate(581.083 2641.101)"/><path d="m152.5 8.185v10.525h2.991a5.811 5.811 0 0 0 2.708-.633 4.778 4.778 0 0 0 2.38-3.144 5.778 5.778 0 0 0 -.985-4.933 5.049 5.049 0 0 0 -3.93-1.812h-3.164" fill="#fff" transform="translate(578.503 2641.101)"/><path d="m115.85 9.394c-.786 1.878-1.528 3.734-2.314 5.612h4.607c-.764-1.878-1.528-3.734-2.293-5.612" fill="#fff" transform="translate(583.686 2640.94)"/><path d="m58.33 9.419c-.764 1.856-1.528 3.734-2.293 5.59h4.629c-.808-1.856-1.528-3.734-2.336-5.59" fill="#fff" transform="translate(591.335 2640.936)"/><path d="m74.808 26.822a8.8 8.8 0 0 0 -1.31.087 6.124 6.124 0 0 0 -3.515 1.638 4.866 4.866 0 0 0 -1.441 3.515 4.956 4.956 0 0 0 .568 2.62 4.607 4.607 0 0 0 2.031 1.79 32.045 32.045 0 0 0 4.716 1.507 5.048 5.048 0 0 1 1.616.786 1.436 1.436 0 0 1 -.175 2.227 3.382 3.382 0 0 1 -1.9.48c-.284 0-.568-.022-.852-.044a8.72 8.72 0 0 1 -4.432-2.1c-.764.917-1.55 1.834-2.314 2.773a11.338 11.338 0 0 0 7.074 2.817h.415a7.642 7.642 0 0 0 4.3-1.157 4.9 4.9 0 0 0 2.052-3.057 5.633 5.633 0 0 0 -.262-3.341 5.045 5.045 0 0 0 -1.463-1.79 7.541 7.541 0 0 0 -2.031-.961c-1.135-.415-2.314-.633-3.472-1a5.222 5.222 0 0 1 -1.507-.677 1.409 1.409 0 0 1 -.022-2.205 2.8 2.8 0 0 1 1.725-.48 6.169 6.169 0 0 1 .633.044 8.862 8.862 0 0 1 3.977 1.706l2.031-2.948a10.211 10.211 0 0 0 -6.441-2.227" fill="#ab233a" transform="translate(589.771 2638.621)"/><path d="m139.508 26.819a6.758 6.758 0 0 0 -4.3 1.376 4.876 4.876 0 0 0 -1.812 3.581 5.23 5.23 0 0 0 .568 2.926 4.477 4.477 0 0 0 1.812 1.681 26.59 26.59 0 0 0 4.825 1.594 4.9 4.9 0 0 1 1.7.808 1.431 1.431 0 0 1 -.131 2.183 3.228 3.228 0 0 1 -1.943.524c-.218 0-.459-.022-.677-.044a8.256 8.256 0 0 1 -4.585-2.118c-.786.917-1.55 1.834-2.314 2.773a11.277 11.277 0 0 0 6.922 2.795c.2 0 .393.022.568.022a7.407 7.407 0 0 0 4.476-1.288 4.827 4.827 0 0 0 1.921-3.3 5.263 5.263 0 0 0 -.524-3.363 5.3 5.3 0 0 0 -2.6-2.074c-1.55-.7-3.253-.917-4.826-1.528a2.391 2.391 0 0 1 -1.2-.852 1.431 1.431 0 0 1 .306-1.769 2.749 2.749 0 0 1 1.79-.524 2.926 2.926 0 0 1 .437.022 8.835 8.835 0 0 1 4.149 1.725l2.031-2.948a10.142 10.142 0 0 0 -6.354-2.227.819.819 0 0 1 -.24.022" fill="#ab233a" transform="translate(581.143 2638.625)"/><path d="m156.285 26.819a6.685 6.685 0 0 0 -4.367 1.463 4.931 4.931 0 0 0 -1.725 3.668 5.018 5.018 0 0 0 .721 2.97 4.889 4.889 0 0 0 2.186 1.68 47.521 47.521 0 0 0 4.542 1.419 4.312 4.312 0 0 1 1.572.808 1.5 1.5 0 0 1 .284 1.441 1.681 1.681 0 0 1 -1.2 1.026 4.222 4.222 0 0 1 -1.266.175 7.373 7.373 0 0 1 -1.376-.153 8.969 8.969 0 0 1 -3.887-2.009c-.764.917-1.55 1.834-2.314 2.773a11.339 11.339 0 0 0 6.638 2.795c.284.022.59.044.873.044a7.524 7.524 0 0 0 4.28-1.157 4.824 4.824 0 0 0 2.074-3.188 5.5 5.5 0 0 0 -.393-3.45 4.773 4.773 0 0 0 -2.336-2.052 50.333 50.333 0 0 0 -5.044-1.638 2.912 2.912 0 0 1 -1.266-.764 1.439 1.439 0 0 1 .2-1.9 3.319 3.319 0 0 1 2.205-.524 8.913 8.913 0 0 1 4.17 1.725c.655-.983 1.354-1.965 2.009-2.926a10.27 10.27 0 0 0 -6.376-2.249h-.087c.022.022-.044.022-.109.022" fill="#ab233a" transform="translate(578.908 2638.625)"/><path d="m17.087 27.536h5.153c.022 1.965 0 3.908 0 5.874h-17.031c-.371 0-.721 0-1.092-.022.022-1.943 0-3.908 0-5.852zm-13.387-.436v6.747h19v-6.747z" fill="#232020" transform="translate(598.298 2638.584)"/><path d="m33.068 41.314v-3.865h4.694a3.437 3.437 0 0 1 2.118.655 1.86 1.86 0 0 1 .437 1.769 1.626 1.626 0 0 1 -.9 1.07 4.744 4.744 0 0 1 -2.205.349h-2.07c-.677.022-1.376.022-2.074.022m.022-7.1v-3.69h4.061a2.9 2.9 0 0 1 1.747.59 1.734 1.734 0 0 1 .371 1.943 1.817 1.817 0 0 1 -1.245 1 5.214 5.214 0 0 1 -1.441.153h-1.048a5.927 5.927 0 0 1 -.635-.01c-.218-.022-.437-.022-.633-.022a3.225 3.225 0 0 0 -.459.022c-.24 0-.48.022-.721.022m4.195-7.122h-7.991v17.6h8.756a8.87 8.87 0 0 0 3.756-.808 4.208 4.208 0 0 0 2.336-2.882 5.022 5.022 0 0 0 -.393-3.428 5.14 5.14 0 0 0 -2.729-2.1 4.311 4.311 0 0 0 2.052-2.38 4.567 4.567 0 0 0 -.5-3.908 4.634 4.634 0 0 0 -2.358-1.7 9.466 9.466 0 0 0 -2.926-.393" fill="#ab233a" transform="translate(594.894 2638.584)"/><path d="m52.337 27.1h-3.909c0 2.773.022 5.546-.022 8.319.044 1.07-.022 2.162.109 3.253a7.227 7.227 0 0 0 1.878 4.28 6.95 6.95 0 0 0 4.17 1.943 11.958 11.958 0 0 0 1.528.087 10.169 10.169 0 0 0 3.144-.48 6.211 6.211 0 0 0 3.275-2.489 8.876 8.876 0 0 0 1.266-4.935v-9.978h-3.906c0 2.926.022 5.83 0 8.756a11.393 11.393 0 0 1 -.153 2.86 3.594 3.594 0 0 1 -1.332 2.074 4.077 4.077 0 0 1 -2.249.633c-.218 0-.437-.022-.655-.044a3.244 3.244 0 0 1 -2.271-1.223 4.862 4.862 0 0 1 -.873-2.991c0-3.363 0-6.7 0-10.066" fill="#ab233a" transform="translate(592.351 2638.584)"/><path d="m86.537 27.1v17.6h3.863c0-3.188-.022-6.376.022-9.542-.044-2.686 0-5.371-.022-8.057h-3.863" fill="#ab233a" transform="translate(587.278 2638.584)"/><path d="m106.453 27.1v10.808c-2.729-3.559-5.415-7.118-8.144-10.677l-.284-.131h-3.407c0 2.62.022 5.24-.022 7.882.044 3.253 0 6.485.022 9.738h3.821v-11.136c2.839 3.712 5.655 7.424 8.494 11.136h3.319v-17.6h-2.252c-.5-.022-1.026-.022-1.55-.022" fill="#ab233a" transform="translate(586.206 2638.584)"/><path d="m129.377 27.1h-13.3v17.6h13.428v-3.473h-9.52v-3.669h8.275v-3.537h-1.96c-.393 0-.808 0-1.2.022a5.593 5.593 0 0 1 -.852.066h-4.28v-3.56h9.411c0-1.135 0-2.293 0-3.45" fill="#ab233a" transform="translate(583.348 2638.584)"/><path d="m8.009 29.219a1.023 1.023 0 0 1 .633-.306 4.207 4.207 0 0 1 .524-.022c.328 0 .655.022 1 .022.044.262-.022.524.175.742.153.153-.044.306-.153.415v1.2l.218.284c0 .131-.131.218-.218.328 0 .153-.022.306-.022.459h-.957a11.854 11.854 0 0 0 -1.245.044c-.328-.022-.677-.044-1-.044h-1.164c0-.153-.022-.328-.022-.48l-.2-.218c-.022-.175.2-.262.218-.437.022-.371 0-.764 0-1.135-.087-.109-.24-.175-.218-.328l.222-.243c0-.2.022-.393.022-.59h1.139a2.126 2.126 0 0 1 .524.044c.175-.022.349.131.524.262m5.284-.022a1.563 1.563 0 0 1 1.07-.328 3.225 3.225 0 0 1 .459.022c.153 0 .306.022.459.022h.175a1.073 1.073 0 0 0 .153.742c.175.153-.044.284-.131.415 0 .371-.022.742 0 1.114.022.153.2.262.2.437l-.2.218c0 .153-.022.306-.022.48-.24.022-.48.022-.721.022h-.525a6.45 6.45 0 0 0 -.917.044 10.253 10.253 0 0 0 -1.157-.044h-.306c-.262 0-.524 0-.786-.022a3.57 3.57 0 0 0 -.044-.48c-.087-.087-.218-.175-.218-.306l.218-.215a11.832 11.832 0 0 0 0-1.245c-.066-.109-.262-.2-.2-.349l.2-.221c0-.2.022-.393.022-.59h1.157a4.207 4.207 0 0 1 .524.022 1.035 1.035 0 0 1 .59.262m5.262 0a1.62 1.62 0 0 1 1.092-.328 3.225 3.225 0 0 1 .459.022c.153 0 .306.022.459.022h.131c0 .2.022.393.022.59.066.087.2.153.218.284l-.218.284a11.017 11.017 0 0 0 0 1.2l.218.262c0 .131-.131.2-.218.306a3.381 3.381 0 0 0 -.022.48c-.24.022-.48.022-.721.022h-.765a2.118 2.118 0 0 0 -.371.022c-.131 0-.24.022-.371.022h-.2c-.218-.022-.437-.022-.655-.022h-.742a3.225 3.225 0 0 1 -.459-.022h-.022c-.131 0-.087-.175-.109-.262 0-.2-.153-.349-.218-.524l.218-.284c0-.393.022-.808 0-1.2-.087-.131-.328-.262-.131-.415.2-.2.153-.48.153-.742.371 0 .721-.044 1.092-.044a2.49 2.49 0 0 1 .568.044 1.238 1.238 0 0 1 .59.284m3.779-1.595h-18.101c0 1.943.022 3.908 0 5.852.371.022.721.022 1.092.022h17.031c-.022-1.965-.022-3.908-.022-5.874" fill="#ab233a" transform="translate(598.227 2638.517)"/><path d="m9.257 32.4c-.284 0-.568-.022-.873-.044.24-.022.48-.022.721-.022.284 0 .568 0 .852.022a3.642 3.642 0 0 1 -.7.044m-1.092.066c-.153 0-.262-.284-.066-.349.022-.022.044-.022.087-.022.153 0 .284.284.066.349a.165.165 0 0 1 -.087.022m.415-.415h.983c.131 0 .24.131.349.2-.218 0-.415.022-.633.022h-.808l-.109-.2a.819.819 0 0 1 .218-.022m-2.183.2.24-.2h1.332l-.131.175c-.175 0-.371.022-.546.022h-.892m1.245-.306h-.92v-2.6c-.022-.218.24-.131.371-.175.371 0 .83 0 1.026.371.066.808 0 1.594.022 2.4h-.5m-1.288.2c.022-.983-.022-1.987.022-2.97l.24.066v2.666l-.262.24m2.686-2.948h.349a.5.5 0 0 1 .306.087c.022.9 0 1.79.022 2.664h-1.444c0-.742-.022-1.485 0-2.205 0-.393.437-.524.742-.546h.022m1.223 3.232-.175-.022-.022-.066c.022-1.026-.022-2.074.022-3.1l.175-.066v.655l.262.153-.262.153v1.469l.262.153-.262.175a3.854 3.854 0 0 1 0 .5m-4.192-.028v-.48l-.262-.2.262-.12v-1.466l-.262-.153.262-.175c0-.218 0-.437.022-.655l.153.109c.022.961 0 1.943.022 2.9-.022.131.109.2.218.2h.915a4.206 4.206 0 0 1 .524.022c-.24.022-.5.022-.742.022h-1.112m3.887-.262c-.218-.175-.131-.459-.153-.677.022-.764-.022-1.55.022-2.336.2.087.109.306.131.48 0 .852.022 1.7 0 2.533m-.59-3.079a4.207 4.207 0 0 0 -.524.022 1.153 1.153 0 0 0 -.633.306 1.208 1.208 0 0 0 -.568-.306 4.207 4.207 0 0 0 -.524-.022h-1.136c0 .2-.022.393-.022.59l-.218.24c-.022.153.153.218.218.328 0 .371.022.764 0 1.135 0 .175-.24.262-.218.437l.2.218a3.538 3.538 0 0 1 .022.48h1.154a7.73 7.73 0 0 1 1 .044c.415-.022.83-.044 1.245-.044h.961c0-.153.022-.306.022-.459.066-.109.2-.2.218-.328l-.218-.284v-1.2c.109-.109.306-.262.153-.415-.2-.2-.131-.48-.175-.742a7.051 7.051 0 0 1 -.961 0" fill="#232020" transform="translate(598.027 2638.323)"/><path d="m12.9 32.252h-.415l.24-.2h.7a3.118 3.118 0 0 1 .633.066c.109.022.262-.022.349.109l.109-.175h1.223l.261.178c-.2 0-.393.022-.59.022h-.81c-.153 0-.218.218-.371.218h-.019c-.153-.022-.153-.218-.306-.218h-1m2.664.109a5.322 5.322 0 0 0 .59-.022c.044-1.048 0-2.1.022-3.122h.2a5.929 5.929 0 0 1 -.022.611l.262.131-.262.2c.022.48.022.961 0 1.463l.24.153-.24.2c0 .153.022.306.022.48h-1.1c-.24 0-.5 0-.742-.022a4.206 4.206 0 0 1 .524-.022h.262a.432.432 0 0 1 .24-.044m-3.122-.218v-2.954h.258v2.6c0 .175-.175.24-.262.349m.371-.2v-2.727c.153 0 .328-.022.5-.022a.98.98 0 0 1 .873.349c.087.786.022 1.594.044 2.4h-1.413m-.677.459a3.538 3.538 0 0 1 .022-.48l-.284-.175.284-.131c-.022-.48-.022-.983 0-1.485l-.284-.153.284-.175c0-.2-.022-.393-.022-.611l.2.044c0 1.048-.044 2.074.022 3.122a3.865 3.865 0 0 0 .5.022h.568a5.321 5.321 0 0 1 .59.022c-.262.022-.524.022-.786.022h-.9a.752.752 0 0 0 -.2-.022m2.205-.459v-2.225a.535.535 0 0 1 .393-.459 2.753 2.753 0 0 1 .611-.087 2.406 2.406 0 0 1 .393.044c.066.9 0 1.812.022 2.729h-1.413m1.7.218a.375.375 0 0 1 -.175-.349c.022-.9-.022-1.79.022-2.686a.278.278 0 0 1 .153.306c0 .917.022 1.812 0 2.729m-.677-3.1a1.563 1.563 0 0 0 -1.07.328 1.238 1.238 0 0 0 -.59-.284 4.208 4.208 0 0 0 -.524-.022h-1.153c0 .2-.022.393-.022.59l-.2.218c-.044.153.131.24.2.349 0 .415.022.83 0 1.245l-.218.218c0 .131.131.218.218.306.022.153.022.328.044.48.262.022.524.022.786.022h.306a10.252 10.252 0 0 1 1.157.044c.306-.022.611-.044.917-.044h.524c.24 0 .48 0 .721-.022 0-.153.022-.328.022-.48l.2-.218c-.022-.175-.175-.262-.2-.437-.022-.371 0-.742 0-1.114.087-.131.306-.262.131-.415a1.073 1.073 0 0 1 -.153-.742h-.175a3.225 3.225 0 0 1 -.459-.022 3.214 3.214 0 0 1 -.459 0" fill="#241f21" transform="translate(597.222 2638.323)"/><path d="m20.346 32.492c-.131-.022-.175-.153-.262-.24.087-.044.175-.131.262-.131.044 0 .066.022.109.044.153.109.022.262-.109.328m-1.725-.262.2-.175h1.354l-.153.153a3.866 3.866 0 0 1 -.5.022h-.9m2.009 0-.066-.175h1.288l.2.175h-1.424m.917.109c.218 0 .459 0 .677-.022.022-1.048 0-2.074.022-3.122h.2v.59c.066.066.24.087.2.218l-.2.131v1.441l.262.2-.262.131v.48h-.175a3.538 3.538 0 0 0 -.48.022c-.153 0-.328.022-.48.022a4.021 4.021 0 0 1 -.721-.066 5.721 5.721 0 0 1 .611-.022h.349m-3.319.066v-.48l-.262-.153.262-.2v-1.442l-.24-.175.24-.175v-.59l.2.022c.022 1.026-.044 2.074.044 3.122a5.322 5.322 0 0 0 .59.022h.524a4.563 4.563 0 0 1 .546.022 4.237 4.237 0 0 1 -.742.044h-1.055a.2.2 0 0 0 -.109-.022m.306-.262v-2.925h.266v2.708l-.262.218m1.834-2.336c.087-.175.109-.393.306-.48a1.582 1.582 0 0 1 .721-.153c.153 0 .306.022.459.022.044.917 0 1.834.022 2.729h-2.98v-2.73c.153 0 .306-.022.459-.022a1.534 1.534 0 0 1 .7.131c.2.087.24.328.306.5m1.747 2.358a.393.393 0 0 1 -.131-.349c0-.9-.022-1.769.022-2.664.175.044.131.24.153.371-.044.9 0 1.769-.044 2.642m-.655-3.1a1.62 1.62 0 0 0 -1.092.328 1.062 1.062 0 0 0 -.611-.284 4.968 4.968 0 0 0 -.568-.044c-.371 0-.721.022-1.092.044a1.073 1.073 0 0 1 -.153.742c-.2.153.044.284.131.415a11.017 11.017 0 0 1 0 1.2l-.218.284c.087.175.24.328.218.524.022.087 0 .262.109.262h1.223c.218 0 .437 0 .655.022h.2a2.118 2.118 0 0 0 .371-.022c.131 0 .24-.022.371-.022h.764c.24 0 .48 0 .721-.022 0-.153.022-.306.022-.48.066-.109.218-.175.218-.306l-.218-.262a11.017 11.017 0 0 1 0-1.2l.218-.284c0-.131-.131-.2-.218-.284a5.321 5.321 0 0 1 -.022-.59h-.131a3.225 3.225 0 0 1 -.459-.022h-.437" fill="#232020" transform="translate(596.415 2638.323)"/><g fill="#fff"><path d="m6.076 29.165c0 .218-.022.437-.022.655l-.262.175.262.153v1.462l-.262.131.262.2v.48h1.114c.24 0 .5 0 .742-.022a4.206 4.206 0 0 0 -.524-.022h-.938c-.109 0-.262-.066-.218-.2-.022-.961.022-1.943-.022-2.9l-.131-.109" transform="translate(598.02 2638.31)"/><path d="m6.469 29.19c-.044.983 0 1.987-.022 2.97l.262-.24v-2.665l-.24-.066" transform="translate(597.933 2638.306)"/><path d="m7.64 30.806c.022-.284.328-.633.044-.852l.306.022c-.2.459-.284.961-.459 1.419-.2-.459-.284-.961-.5-1.419h.524l-.175.131a6.607 6.607 0 0 1 .262.7m-.395-1.617c-.131.022-.393-.044-.371.175v2.6h1.441c-.022-.808.044-1.594-.022-2.4-.218-.349-.7-.349-1.048-.371" transform="translate(597.876 2638.306)"/><path d="m9.754 31.33h-.854l.131-.153v-1.026l-.15-.151h.9v.459a.487.487 0 0 0 -.437-.393h-.044v.568l.262-.306v.655l-.262-.33a1.785 1.785 0 0 0 .022.59.131.131 0 0 0 .087.022c.2 0 .306-.24.415-.393l-.066.459m.022-2.14h-.38c-.328.022-.742.153-.742.546-.022.742 0 1.485 0 2.205h1.442c0-.9.022-1.79-.022-2.664a.5.5 0 0 0 -.306-.087" transform="translate(597.639 2638.306)"/><path d="m10.473 29.14c-.066.764 0 1.55-.022 2.336.022.24-.066.524.153.677.022-.852 0-1.681.022-2.533-.044-.153.022-.371-.153-.48" transform="translate(597.401 2638.313)"/><path d="m10.925 29.165-.175.066c-.044 1.026 0 2.074-.022 3.1l.022.066.175.022v-.5l.262-.175-.262-.153v-1.466l.262-.153-.262-.153c.022-.218 0-.437 0-.655" transform="translate(597.363 2638.31)"/><path d="m12.124 29.19a5.721 5.721 0 0 0 .022.611l-.284.175.284.153c-.022.48-.022.983 0 1.463l-.284.131.284.175c0 .153-.022.328-.022.48h1.07c.262 0 .524 0 .786-.022a5.321 5.321 0 0 0 -.59-.022h-.568a3.864 3.864 0 0 1 -.5-.022c-.066-1.026-.022-2.074-.022-3.122h-.175" transform="translate(597.212 2638.306)"/><path d="m12.542 29.215v2.948c.087-.109.262-.175.262-.328v-2.6l-.262-.022" transform="translate(597.122 2638.303)"/><path d="m13.54 30.631c.24-.044.262-.262.24-.459l-.175-.24c.153.044.371.044.437.24a.456.456 0 0 1 -.2.5 5.882 5.882 0 0 0 .349.633h-.328a5.762 5.762 0 0 0 -.328-.633.819.819 0 0 0 .153.633h-.568l.175-.131a3.768 3.768 0 0 0 -.087-1.223 3.389 3.389 0 0 1 .459.087c-.218.131-.109.393-.131.59m-.036-1.438c-.175 0-.349.022-.5.022-.022.917 0 1.834 0 2.729h1.4c-.022-.808.044-1.616-.044-2.4a.94.94 0 0 0 -.852-.349" transform="translate(597.063 2638.306)"/><path d="m15.147 31.308.153-.175a7.378 7.378 0 0 0 0-.983l-.131-.2a5.321 5.321 0 0 1 .59.022l-.175.109a9.02 9.02 0 0 0 .022 1.092l.153.131h-.611m.59-2.118a1.972 1.972 0 0 0 -.611.087.49.49 0 0 0 -.393.459c-.022.742 0 1.485 0 2.227h1.419c-.022-.917.044-1.834-.022-2.729a2.406 2.406 0 0 0 -.393-.044" transform="translate(596.832 2638.306)"/><path d="m16.518 29.165c-.044.9 0 1.79-.022 2.686-.022.153.066.24.153.349.022-.9 0-1.812.022-2.729a.236.236 0 0 0 -.153-.306" transform="translate(596.596 2638.31)"/><path d="m16.791 29.215h-.2c0 1.048.022 2.1-.022 3.122a5.32 5.32 0 0 1 -.59.022h-.524a4.208 4.208 0 0 0 -.524.022c.24.022.5.022.742.022h1.092a3.7 3.7 0 0 0 -.022-.48l.24-.2-.24-.153c.022-.48.022-.961 0-1.463l.262-.2-.262-.131a4.01 4.01 0 0 0 .044-.568" transform="translate(596.803 2638.303)"/><path d="m18.244 29.215v.59l-.24.175.24.175v1.445l-.262.2.262.153v.48h.109a4.207 4.207 0 0 1 .524.022h.523a4.237 4.237 0 0 0 .742-.044 4.563 4.563 0 0 0 -.546-.022h-.524a5.322 5.322 0 0 1 -.59-.022c-.087-1.026 0-2.074-.044-3.1l-.2-.044" transform="translate(596.398 2638.303)"/><path d="m18.9 29.215h-.262v2.926l.262-.218z" transform="translate(596.311 2638.303)"/><path d="m19.131 30.434v-.459h.869c0 .153-.022.328-.022.48-.066-.175-.109-.349-.284-.437a9.473 9.473 0 0 0 0 1.114l.131.2h-.568l.131-.175a9.474 9.474 0 0 0 0-1.114.778.778 0 0 0 -.262.393m2.358.786a.206.206 0 0 0 .109-.349c-.153-.153-.437-.262-.437-.524a.437.437 0 0 1 .175-.415.372.372 0 0 1 .153-.022c.109 0 .218.022.349.022a2.926 2.926 0 0 0 -.022.437c-.087-.131-.131-.393-.328-.393h-.066c-.218.24.109.393.262.524a.507.507 0 0 1 .087.677.294.294 0 0 1 -.262.109.372.372 0 0 1 -.153-.022c-.066 0-.109-.022-.153-.022h-.022a4.207 4.207 0 0 1 .022-.524c.066.153.087.371.262.459-.022.044 0 .044.022.044m-1.157-.393h.24a3.563 3.563 0 0 0 -.2-.415 1.5 1.5 0 0 1 .109-.524 11.487 11.487 0 0 0 .546 1.441h-.524l.087-.262c0-.109-.066-.131-.153-.131h-.2a.273.273 0 0 0 .109.393h-.371a3.164 3.164 0 0 0 .262-.764h.066l.022.262m1.223-1.638a1.713 1.713 0 0 0 -.721.153c-.175.087-.218.306-.306.48-.066-.175-.109-.415-.306-.5a1.534 1.534 0 0 0 -.7-.131 3.225 3.225 0 0 0 -.459.022v2.729h2.97c-.022-.917.022-1.834-.022-2.729-.153 0-.306-.022-.459-.022" transform="translate(596.254 2638.306)"/><path d="m22.613 29.165c-.022.9 0 1.769-.022 2.664a.535.535 0 0 0 .131.349c.044-.873 0-1.747.022-2.62 0-.153.044-.349-.131-.393" transform="translate(595.785 2638.31)"/><path d="m22.857 29.215h-.2c-.022 1.048.022 2.074-.022 3.122-.218.022-.459.022-.677.022h-.371a5.722 5.722 0 0 0 -.611.022 4.02 4.02 0 0 0 .721.066 3.538 3.538 0 0 0 .48-.022c.153 0 .328-.022.48-.022h.175v-.48l.262-.131-.262-.2v-1.438l.2-.131c.044-.131-.131-.153-.2-.218a5.321 5.321 0 0 0 .022-.59" transform="translate(595.999 2638.303)"/></g><path d="m7.735 30.071c.284.218-.022.568-.044.852-.087-.24-.175-.48-.24-.721l.175-.131h-.526c.218.459.306.961.5 1.419a10.753 10.753 0 0 1 .459-1.419z" fill="#232020" transform="translate(597.845 2638.189)"/><path d="m15.209 30.071.131.2a7.377 7.377 0 0 1 0 .983l-.153.175h.59l-.153-.131c-.044-.371 0-.742-.022-1.092l.175-.109c-.175 0-.371-.022-.568-.022" fill="#232020" transform="translate(596.77 2638.189)"/><path d="m20.632 29.971a1.5 1.5 0 0 0 -.109.524c.066.131.131.262.2.415h-.24v-.284h-.044a3.164 3.164 0 0 1 -.262.764h.371a.291.291 0 0 1 -.112-.39h.2c.087 0 .175.022.153.131l-.087.262h.524a8.1 8.1 0 0 1 -.59-1.419" fill="#241f21" transform="translate(596.106 2638.202)"/><path d="m21.807 30.021a.372.372 0 0 0 -.153.022.437.437 0 0 0 -.175.415c0 .262.284.371.437.524a.2.2 0 0 1 -.109.349.08.08 0 0 1 -.066-.022c-.153-.109-.175-.306-.262-.459a4.207 4.207 0 0 0 -.022.524h.022a.372.372 0 0 1 .153.022c.066 0 .109.022.153.022a.318.318 0 0 0 .262-.109.465.465 0 0 0 -.087-.677c-.153-.131-.48-.284-.262-.524h.066c.2 0 .24.24.328.393a2.926 2.926 0 0 0 .022-.437 1.289 1.289 0 0 0 -.306-.044" fill="#232020" transform="translate(595.936 2638.196)"/><path d="m9.24 30.122h-.35l.153.153v1.025l-.131.153h.852a3.258 3.258 0 0 0 .044-.453c-.109.153-.2.393-.415.393a.131.131 0 0 1 -.087-.022 2.667 2.667 0 0 1 -.022-.59l.262.328c0-.218-.022-.437 0-.655l-.262.306v-.568h.044c.24 0 .349.175.437.393v-.459h-.525" fill="#232020" transform="translate(597.608 2638.182)"/><path d="m13.624 30.046.175.24c.022.218.022.415-.24.459.022-.2-.087-.459.109-.59a3.39 3.39 0 0 0 -.459-.087 2.857 2.857 0 0 1 .087 1.223l-.175.131h.568a.819.819 0 0 1 -.153-.633 5.762 5.762 0 0 1 .328.633h.328a5.882 5.882 0 0 1 -.349-.633.491.491 0 0 0 .2-.5c-.022-.2-.262-.2-.415-.24" fill="#232020" transform="translate(597.045 2638.192)"/><path d="m20.014 30.071h-.873v.459a.942.942 0 0 1 .284-.415 6.323 6.323 0 0 1 0 1.114l-.131.175h.568l-.131-.2a9.474 9.474 0 0 1 0-1.114c.175.087.218.262.284.437q0-.2 0-.459" fill="#232020" transform="translate(596.244 2638.189)"/><path d="m33.673 31.054v3.69c.24 0 .5 0 .742-.022a3.225 3.225 0 0 1 .459-.022c.218 0 .437.022.633.022a6.136 6.136 0 0 0 .633.022h1.048a5.4 5.4 0 0 0 1.441-.153 1.742 1.742 0 0 0 .873-2.948 2.812 2.812 0 0 0 -1.747-.59h-4.082" fill="#fff" transform="translate(594.311 2638.058)"/><path d="m6.76 32.511-.262.2h.9a4.563 4.563 0 0 0 .546-.022l.131-.2h-.747a4.749 4.749 0 0 1 -.568.022" fill="#fff" transform="translate(597.926 2637.867)"/><path d="m8.533 32.565a.165.165 0 0 0 -.087.022c-.2.066-.087.349.066.349a.165.165 0 0 0 .087-.022c.2-.066.087-.349-.066-.349" fill="#fff" transform="translate(597.681 2637.857)"/><path d="m9.6 32.511h-.81l.109.2h.808a6.135 6.135 0 0 0 .633-.022c-.109-.066-.218-.2-.349-.2h-.022a2.118 2.118 0 0 1 -.371.022" fill="#fff" transform="translate(597.621 2637.867)"/><path d="m12.833 32.514-.24.2h1.4c.153 0 .153.2.306.218h.022c.153 0 .2-.218.371-.218h.808a5.32 5.32 0 0 0 .59-.022l-.262-.175h-1.2l-.109.175c-.087-.131-.218-.066-.349-.087a1.947 1.947 0 0 0 -.611-.066h-.437a1.343 1.343 0 0 0 -.284-.022" fill="#fff" transform="translate(597.115 2637.864)"/><path d="m18.909 32.514-.2.175h.873a3.865 3.865 0 0 0 .5-.022l.153-.153z" fill="#fff" transform="translate(596.301 2637.864)"/><path d="m20.713 32.565c-.087 0-.175.109-.262.131.087.087.131.218.262.24.131-.044.262-.218.109-.328a.369.369 0 0 0 -.109-.044" fill="#fff" transform="translate(596.07 2637.857)"/><path d="m20.979 32.514.066.175h1.419l-.2-.175z" fill="#fff" transform="translate(595.999 2637.864)"/><path d="m9.535 32.867c-.24 0-.48 0-.721.022.284.022.568.044.873.044a3.642 3.642 0 0 0 .7-.044c-.284-.022-.568-.022-.852-.022" fill="#fff" transform="translate(597.618 2637.817)"/><path d="m10.066 45.357a3.39 3.39 0 0 1 -.087-.459l.328.087c.022.153-.153.262-.24.371m7.38 0a3.258 3.258 0 0 1 -.047-.456l.328.087a1.125 1.125 0 0 1 -.284.371m-1.07-.022c-.087-.109-.175-.24-.262-.349a1.275 1.275 0 0 1 .393-.087c-.044.131-.066.284-.131.437m-4.192.546a1.215 1.215 0 0 1 .306-1 1.021 1.021 0 0 1 1.55.109 1.444 1.444 0 0 1 .218.9 1.7 1.7 0 0 1 .349-.044 1.1 1.1 0 0 1 .808.306 1.225 1.225 0 0 1 .24 1.092 3.27 3.27 0 0 1 .48-.044.932.932 0 0 1 .983 1.07 19.94 19.94 0 0 1 -3.887 3.144 19.482 19.482 0 0 1 -3.865-3.079.883.883 0 0 1 .24-.873 1.03 1.03 0 0 1 .7-.262 1.408 1.408 0 0 1 .437.066 1.4 1.4 0 0 1 .218-1.07 1.074 1.074 0 0 1 .83-.349c.153.022.284.022.393.044m3.756.524c-.131-.131-.328-.349-.2-.524.218-.131.48-.131.633-.328a2.53 2.53 0 0 0 .349-.873c.022-.109.109-.109.218-.109h.131a2.824 2.824 0 0 0 .421 1.017c.175.218.568.131.677.415a1.51 1.51 0 0 1 -.218.415c-.218-.153-.328-.415-.59-.48.109.262.393.459.415.764-.022.2-.218.2-.371.2h-.066a2.211 2.211 0 0 0 -.218-.764 2.114 2.114 0 0 0 .087.83c.044.2-.131.284-.284.284a.242.242 0 0 1 -.262-.2c-.022-.306.2-.611.066-.917a3.892 3.892 0 0 0 -.2.721.3.3 0 0 1 -.2.066.311.311 0 0 1 -.262-.131c-.087-.349.328-.568.393-.9a2.257 2.257 0 0 0 -.524.5m-6.74-1.133a2.1 2.1 0 0 1 .175-.633.191.191 0 0 1 .2-.109.21.21 0 0 1 .2.131 2.828 2.828 0 0 0 .349.9c.153.24.5.175.677.371.066.175-.087.349-.218.48a4.157 4.157 0 0 0 -.546-.524c.066.306.371.48.415.786a.263.263 0 0 1 -.284.218.638.638 0 0 1 -.2-.044 4.421 4.421 0 0 0 -.2-.721 1.346 1.346 0 0 0 .066.83.264.264 0 0 1 -.284.284.421.421 0 0 1 -.218-.066c-.153-.349.2-.7.044-1.048a2.868 2.868 0 0 0 -.218.7.3.3 0 0 1 -.2.066c-.153 0-.328-.109-.262-.306.087-.262.306-.437.415-.677-.218.087-.349.306-.524.459h-.042c-.153 0-.2-.24-.262-.371.044-.175.262-.175.393-.262.218-.044.328-.24.48-.393l-.284-.109-.153-.306.328-.044a1.057 1.057 0 0 0 .153.393m3.472-3.777c-.087-.109-.218-.218-.175-.371l.306-.066c-.044.153 0 .349-.131.437m-.393 1.048c-.2-.022-.24-.262-.262-.415.175-.218.524-.153.677-.371a2.075 2.075 0 0 0 .349-.852.23.23 0 0 1 .218-.175.2.2 0 0 1 .175.087 2.825 2.825 0 0 1 .175.568h.022c.131 0 .087-.218.131-.306l.284.087-.218.306-.153.109c.153.349.546.349.83.524-.087.131-.087.437-.306.437-.175-.153-.284-.393-.524-.437.109.306.5.524.393.873a.28.28 0 0 1 -.218.087.785.785 0 0 1 -.24-.044 1.432 1.432 0 0 0 -.2-.721 1.7 1.7 0 0 0 .109.873.234.234 0 0 1 -.262.24c-.131 0-.284-.087-.262-.24.022-.284.2-.59.066-.873a2.834 2.834 0 0 0 -.153.721.637.637 0 0 1 -.2.044.272.272 0 0 1 -.306-.24c.066-.284.306-.48.437-.742-.284.087-.393.328-.568.459m-2.38-4.826-.066-.459.349.087a1.125 1.125 0 0 1 -.284.371m6.463-.022-.2-.328c.044-.131.24-.087.349-.109a1.482 1.482 0 0 1 -.153.437m-7.544-.025c-.087-.109-.2-.218-.2-.349l.306-.087c-.022.153.044.349-.109.437m7.14 1.092c-.109-.153-.328-.349-.2-.546.24-.131.568-.153.721-.415.2-.262.131-.655.371-.9h.284a3.339 3.339 0 0 1 .153.633l.153.066.022-.328.306.066c-.022.24-.262.262-.393.415a.821.821 0 0 0 .393.328c.153.087.393.087.459.262a1.51 1.51 0 0 1 -.218.415c-.218-.153-.349-.415-.59-.5.109.284.393.459.415.786-.022.175-.2.2-.349.2h-.109a2.211 2.211 0 0 0 -.218-.764 1.9 1.9 0 0 0 .087.852c.044.175-.131.284-.284.284a.242.242 0 0 1 -.262-.2c-.022-.306.218-.611.044-.9a4.325 4.325 0 0 0 -.175.721.638.638 0 0 1 -.2.044.313.313 0 0 1 -.24-.109c-.087-.371.328-.568.393-.9a2.014 2.014 0 0 0 -.568.48m-7.555 0a.58.58 0 0 1 -.24-.48c.2-.175.524-.131.7-.371a2.37 2.37 0 0 0 .349-.873.213.213 0 0 1 .393 0 2.531 2.531 0 0 0 .349.873c.153.24.48.2.677.371.044.175-.087.328-.175.459-.262-.066-.349-.393-.611-.459.087.262.328.437.415.7a.247.247 0 0 1 -.262.306.3.3 0 0 1 -.2-.066 1.848 1.848 0 0 0 -.2-.7c-.153.349.2.7.044 1.048a.352.352 0 0 1 -.2.066.264.264 0 0 1 -.284-.284 2.068 2.068 0 0 0 .109-.808c-.175.2-.153.48-.218.7a.235.235 0 0 1 -.175.044c-.175 0-.328-.109-.284-.306.087-.262.328-.437.415-.7a1.713 1.713 0 0 0 -.611.48m11.223-.349a1.344 1.344 0 0 1 .284-1.07 1.461 1.461 0 0 1 1.048-.306 1.313 1.313 0 0 1 .48-1.135.662.662 0 0 1 .5-.153h.328a18.491 18.491 0 0 1 -3.166 10.088 1.3 1.3 0 0 1 -.677-.371 1.419 1.419 0 0 1 -.2-.939h-.087a1.315 1.315 0 0 1 -.9-.262 1.151 1.151 0 0 1 -.301-1.057h-.218a1.191 1.191 0 0 1 -.611-.131 1.007 1.007 0 0 1 -.24-1.572 1.6 1.6 0 0 1 1.07-.371 1.355 1.355 0 0 1 .262-1 1.367 1.367 0 0 1 1.048-.306h.022a1.523 1.523 0 0 1 .218-1.026 1.314 1.314 0 0 1 1.048-.349.237.237 0 0 1 .109-.022m-15.308-2.651h.262a.767.767 0 0 1 .438.109 1.274 1.274 0 0 1 .524 1.179 1.348 1.348 0 0 1 1.07.328 1.367 1.367 0 0 1 .262 1.048 1.422 1.422 0 0 1 1.092.328 1.521 1.521 0 0 1 .262 1.07h.066a1.264 1.264 0 0 1 .961.284 1.474 1.474 0 0 1 .328 1.048 1.723 1.723 0 0 1 .983.284 1.032 1.032 0 0 1 -.022 1.594 1.2 1.2 0 0 1 -.764.218h-.176a1.228 1.228 0 0 1 -.286 1.025 1.215 1.215 0 0 1 -.9.306h-.1a1.475 1.475 0 0 1 -.24 1 1.314 1.314 0 0 1 -.677.328 18.894 18.894 0 0 1 -3.147-10.084c0-.066.044-.066.066-.066m12.337-.437a1.2 1.2 0 0 1 .153 1.2 1.578 1.578 0 0 1 -1.245.546 1.419 1.419 0 0 1 -.306 1.07 1.922 1.922 0 0 1 -1.092.306 1.51 1.51 0 0 1 -.131.873.952.952 0 0 1 -.852.459.962.962 0 0 1 -.873-.48 1.888 1.888 0 0 1 -.131-.852 1.729 1.729 0 0 1 -1.092-.306 1.583 1.583 0 0 1 -.328-1.048 1.485 1.485 0 0 1 -1.242-.544 1.2 1.2 0 0 1 .153-1.2h-5.875a19 19 0 0 0 4.367 12.292 19.487 19.487 0 0 0 5.066 4.28 19.236 19.236 0 0 0 7.184-7.424 19 19 0 0 0 2.227-9.127h-3.713c-.742-.044-1.507-.044-2.271-.044" fill="#232020" transform="translate(598.288 2637.489)"/><path d="m4.634 35.814h-.327a18.894 18.894 0 0 0 3.144 10.086 1.166 1.166 0 0 0 .677-.328 1.447 1.447 0 0 0 .24-1h.109a1.215 1.215 0 0 0 .9-.306 1.178 1.178 0 0 0 .284-1.026h.175a1.2 1.2 0 0 0 .764-.218 1.032 1.032 0 0 0 .022-1.594 1.7 1.7 0 0 0 -.961-.284 1.409 1.409 0 0 0 -.328-1.048 1.359 1.359 0 0 0 -.961-.284h-.072a1.521 1.521 0 0 0 -.262-1.07 1.514 1.514 0 0 0 -1.092-.328 1.491 1.491 0 0 0 -.262-1.048 1.53 1.53 0 0 0 -1.07-.328 1.249 1.249 0 0 0 -.524-1.179 3.258 3.258 0 0 0 -.459-.044" fill="#fff" transform="translate(598.217 2637.425)"/><path d="m23.711 35.814a.722.722 0 0 0 -.5.153 1.337 1.337 0 0 0 -.48 1.135 1.461 1.461 0 0 0 -1.048.306 1.533 1.533 0 0 0 -.284 1.07h-.066a1.289 1.289 0 0 0 -1.048.349 1.523 1.523 0 0 0 -.218 1.026h-.022a1.367 1.367 0 0 0 -1.048.306 1.355 1.355 0 0 0 -.262 1 1.6 1.6 0 0 0 -1.07.371 1.007 1.007 0 0 0 .24 1.572 1.145 1.145 0 0 0 .611.131h.218a1.252 1.252 0 0 0 .328 1.092 1.282 1.282 0 0 0 .9.262h.087a1.393 1.393 0 0 0 .2.939 1.162 1.162 0 0 0 .677.371 18.491 18.491 0 0 0 3.166-10.088h-.371" fill="#fff" transform="translate(596.477 2637.425)"/><path d="m10.059 37.123a.191.191 0 0 0 -.2.131 2.714 2.714 0 0 1 -.349.873c-.153.24-.5.2-.7.371a.529.529 0 0 0 .24.48 2.983 2.983 0 0 1 .546-.5c-.087.262-.328.437-.415.7a.261.261 0 0 0 .284.306.411.411 0 0 0 .175-.044 1.871 1.871 0 0 1 .218-.7 2.014 2.014 0 0 1 -.109.808c-.044.175.131.284.284.284a.3.3 0 0 0 .2-.066c.153-.349-.175-.7-.044-1.048a1.968 1.968 0 0 1 .2.7.3.3 0 0 0 .2.066c.175 0 .328-.109.262-.306-.087-.262-.306-.437-.415-.7.262.087.349.415.611.48.087-.131.218-.284.175-.459-.2-.175-.524-.153-.7-.371a2.531 2.531 0 0 1 -.349-.873c.044-.087-.044-.131-.109-.131" fill="#fff" transform="translate(597.618 2637.251)"/><path d="m18.923 37.148h-.284c-.24.24-.153.633-.371.9-.131.284-.48.306-.721.415-.131.2.066.393.2.546a3.1 3.1 0 0 1 .546-.524c-.066.328-.48.524-.393.9a.294.294 0 0 0 .262.109.638.638 0 0 0 .2-.044c.066-.24.087-.48.175-.721.175.306-.066.611-.044.9a.242.242 0 0 0 .262.2.264.264 0 0 0 .284-.284 1.868 1.868 0 0 1 -.087-.852 2.357 2.357 0 0 1 .218.764h.109c.153 0 .328-.022.349-.2-.022-.306-.328-.5-.415-.786.24.087.393.349.59.5a1.51 1.51 0 0 0 .218-.415c-.066-.2-.306-.2-.459-.262-.175-.044-.262-.218-.393-.328.131-.153.371-.175.393-.415l-.306-.066-.022.328-.153-.066a3.937 3.937 0 0 0 -.153-.59" fill="#fff" transform="translate(596.462 2637.248)"/><path d="m9.675 37.526-.306.087c0 .131.109.24.2.349.131-.087.066-.284.109-.437" fill="#fff" transform="translate(597.544 2637.197)"/><path d="m18.407 37.551c-.109.022-.284-.022-.349.109l.2.328a1.482 1.482 0 0 0 .153-.437" fill="#fff" transform="translate(596.388 2637.194)"/><path d="m10.754 37.551.066.459a1.526 1.526 0 0 0 .284-.371l-.349-.087" fill="#fff" transform="translate(597.36 2637.194)"/><path d="m33.673 39.037v3.863h4.149a5.042 5.042 0 0 0 2.205-.349 1.5 1.5 0 0 0 .873-1.07 1.86 1.86 0 0 0 -.437-1.769 3.183 3.183 0 0 0 -2.118-.655h-3.318c-.459-.022-.9-.022-1.354-.022" fill="#fff" transform="translate(594.311 2636.996)"/><path d="m14.517 41.531a.213.213 0 0 0 -.218.175 2.075 2.075 0 0 1 -.349.852c-.175.24-.5.153-.677.371.022.153.066.415.262.415.175-.131.306-.371.524-.437-.109.262-.349.459-.437.742a.264.264 0 0 0 .284.24.638.638 0 0 0 .2-.044 2.834 2.834 0 0 1 .153-.721c.131.284-.044.568-.066.873a.254.254 0 0 0 .284.24c.131 0 .284-.087.262-.24a2.346 2.346 0 0 1 -.109-.873 1.7 1.7 0 0 1 .2.721.928.928 0 0 0 .24.044.28.28 0 0 0 .218-.087c.109-.349-.284-.568-.393-.873.24.066.349.306.524.437.218 0 .218-.306.306-.437-.284-.175-.677-.2-.83-.524l.153-.109.218-.306-.328-.087c-.044.087 0 .306-.131.306h-.022a2.451 2.451 0 0 0 -.175-.568c.044-.066-.022-.109-.087-.109" fill="#fff" transform="translate(597.025 2636.665)"/><path d="m14.132 41.934-.306.066c-.022.153.109.262.175.371.131-.087.087-.284.131-.437" fill="#fff" transform="translate(596.951 2636.611)"/><path d="m10.232 45.938a.229.229 0 0 0 -.2.109 5.359 5.359 0 0 0 -.175.633.766.766 0 0 1 -.131-.393l-.328.044.153.306.284.109c-.153.153-.262.328-.48.393-.131.066-.349.066-.393.262.044.131.087.371.262.371h.044c.175-.153.284-.371.524-.459-.109.24-.328.437-.415.677a.247.247 0 0 0 .262.306.352.352 0 0 0 .2-.066 1.871 1.871 0 0 1 .218-.7c.153.349-.2.7-.044 1.048a.369.369 0 0 0 .218.066.264.264 0 0 0 .284-.284 1.358 1.358 0 0 1 -.066-.83c.087.24.131.48.2.721a.637.637 0 0 0 .2.044.263.263 0 0 0 .284-.218c-.022-.306-.349-.48-.415-.786a4.1 4.1 0 0 1 .546.524c.109-.131.284-.306.218-.48-.175-.2-.524-.131-.677-.371a2.475 2.475 0 0 1 -.349-.9.24.24 0 0 0 -.218-.131" fill="#fff" transform="translate(597.597 2636.078)"/><path d="m14.059 45.989a1.078 1.078 0 0 0 -.742.306 1.383 1.383 0 0 0 -.306 1 1.911 1.911 0 0 0 -.349-.044 1 1 0 0 0 -.83.349 1.51 1.51 0 0 0 -.24 1.07 1.408 1.408 0 0 0 -.437-.066.935.935 0 0 0 -.7.262.882.882 0 0 0 -.262.873 18.976 18.976 0 0 0 3.865 3.1 19.171 19.171 0 0 0 3.888-3.139.932.932 0 0 0 -.983-1.07 3.571 3.571 0 0 0 -.48.044 1.372 1.372 0 0 0 -.24-1.092 1.1 1.1 0 0 0 -.808-.306 1.911 1.911 0 0 0 -.349.044 1.606 1.606 0 0 0 -.218-.9.907.907 0 0 0 -.808-.437" fill="#fff" transform="translate(597.439 2636.071)"/><path d="m18.774 45.931a.222.222 0 0 0 -.218.109 2.37 2.37 0 0 1 -.349.873c-.153.2-.437.218-.633.328-.131.2.066.393.2.524a4.1 4.1 0 0 1 .546-.524c-.066.328-.48.524-.393.9a.273.273 0 0 0 .262.109.352.352 0 0 0 .2-.066 3.892 3.892 0 0 1 .2-.721c.131.306-.087.611-.066.917a.242.242 0 0 0 .262.2c.153 0 .328-.109.284-.284a1.775 1.775 0 0 1 -.087-.83 2.211 2.211 0 0 1 .218.764h.087c.153 0 .349-.022.371-.2-.022-.306-.306-.5-.437-.764.262.066.393.349.59.48a1.51 1.51 0 0 0 .218-.415c-.109-.284-.5-.2-.677-.415a2.824 2.824 0 0 1 -.415-1.026h-.087c-.022.044-.044.044-.066.044" fill="#fff" transform="translate(596.458 2636.085)"/><path d="m10.93 46.366c.022.153.066.306.087.459.087-.109.24-.218.24-.393l-.328-.066" fill="#fff" transform="translate(597.336 2636.021)"/><path d="m18.4 46.366a2.538 2.538 0 0 0 -.393.087c.087.109.175.24.262.349.066-.153.087-.306.131-.437" fill="#fff" transform="translate(596.395 2636.021)"/><path d="m19.494 46.366c.022.153.022.306.044.459a.873.873 0 0 0 .284-.393z" fill="#fff" transform="translate(596.197 2636.021)"/><path d="m75.057 50.418a3.069 3.069 0 0 0 -2.357.982 2.651 2.651 0 0 0 -.437 2.38 1.915 1.915 0 0 0 .939 1.157c.939.546 2.1.59 3.057 1.07a.678.678 0 0 1 .218 1.07 1.346 1.346 0 0 1 -1.026.349 1.245 1.245 0 0 1 -.284-.022 4.178 4.178 0 0 1 -2.249-1.026c-.371.459-.742.9-1.114 1.354a5.526 5.526 0 0 0 3.581 1.354 5.734 5.734 0 0 0 1.07-.109 2.517 2.517 0 0 0 1.921-1.594 2.459 2.459 0 0 0 -.415-2.467 4.593 4.593 0 0 0 -2.183-1.026 5.648 5.648 0 0 1 -1.441-.5.68.68 0 0 1 -.087-1.07 1.377 1.377 0 0 1 .873-.262h.065a4.458 4.458 0 0 1 2.118.83c.328-.48.655-.939.983-1.419a4.941 4.941 0 0 0 -3.035-1.07h-.066a.277.277 0 0 1 -.131.022" fill="#ab233a" transform="translate(589.238 2635.485)"/><path d="m111.8 50.4h-.262a4.428 4.428 0 0 0 -3.472 1.725 4.628 4.628 0 0 0 -.677 4.018 4.129 4.129 0 0 0 2.4 2.642 4.916 4.916 0 0 0 1.856.349 5.562 5.562 0 0 0 3.6-1.332v-3.716h-3.668v1.614h1.856v1.223a3.071 3.071 0 0 1 -1.681.48 2.656 2.656 0 0 1 -1.55-.48 2.752 2.752 0 0 1 -1-2.664 2.494 2.494 0 0 1 2.336-2.162h.218a3.269 3.269 0 0 1 2.052.852l1.179-1.441c-.262-.2-.524-.393-.808-.568a4.954 4.954 0 0 0 -2.38-.546" fill="#ab233a" transform="translate(584.529 2635.485)"/><path d="m31.546 52.25h1.31a1.256 1.256 0 0 1 .371 2.467 3.952 3.952 0 0 1 -.873.087h-1.113v-2.532a1.442 1.442 0 0 1 .306-.022m.109-1.7h-2.315v8.472h1.9v-2.536h1.79a3.288 3.288 0 0 0 2.577-1.332 3.129 3.129 0 0 0 -.044-3.341 3.169 3.169 0 0 0 -2.62-1.245c-.415-.022-.852-.022-1.288-.022" fill="#ab233a" transform="translate(594.887 2635.465)"/><path d="m45.034 50.547h-1.048v4.738a2.9 2.9 0 0 1 -.218 1.223 1.7 1.7 0 0 1 -1.572.917 1.863 1.863 0 0 1 -1.223-.437 2.132 2.132 0 0 1 -.59-1.616v-4.8h-1.9v4.563a5.226 5.226 0 0 0 .393 2.227 2.948 2.948 0 0 0 1.572 1.507 4.525 4.525 0 0 0 1.7.306 5.04 5.04 0 0 0 .808-.066 3.207 3.207 0 0 0 2.162-1.179 4.281 4.281 0 0 0 .764-2.817v-4.544c-.284-.022-.568-.022-.852-.022" fill="#ab233a" transform="translate(593.671 2635.465)"/><path d="m51.021 57.356v-1.834h2.118a1.819 1.819 0 0 1 1.07.262.9.9 0 0 1 .2 1.114 1.24 1.24 0 0 1 -1.092.459h-2.296m.284-5.175h1.485a1.751 1.751 0 0 1 .983.262.819.819 0 0 1 -.022 1.245 1.712 1.712 0 0 1 -1.048.262h-1.703v-1.77h.306m1.179-1.638h-3.3v8.472h4.127a3.7 3.7 0 0 0 2.424-.764 2.306 2.306 0 0 0 .5-2.4 2.333 2.333 0 0 0 -1.419-1.266 2.017 2.017 0 0 0 .48-.371 2.1 2.1 0 0 0 -.153-3.079 3.479 3.479 0 0 0 -2.031-.611 5.928 5.928 0 0 1 -.633.022" fill="#ab233a" transform="translate(592.247 2635.468)"/><path d="m59.209 50.547c0 2.817-.022 5.655 0 8.472h6.091v-1.7h-4.213v-6.75h-1.419a3.225 3.225 0 0 0 -.459-.022" fill="#ab233a" transform="translate(590.915 2635.465)"/><path d="m68.976 50.547h-1.026v8.472h1.856v-8.45c-.284-.022-.568-.022-.83-.022" fill="#ab233a" transform="translate(589.75 2635.465)"/><path d="m87.466 50.544h-.808c.022 1.114 0 2.227 0 3.319h-3.406v-3.319h-1.878v8.45h1.856c.022-1.135 0-2.271 0-3.406h3.384v3.406h1.878v-8.472h-.655a1.772 1.772 0 0 1 -.371.022" fill="#ab233a" transform="translate(587.965 2635.468)"/><path d="m93.017 50.547h-.939v8.453h1.9v-8.45h-.961" fill="#ab233a" transform="translate(586.541 2635.465)"/><path d="m102.31 50.547v5.175c-1.31-1.722-2.62-3.45-3.952-5.175h-1.747v8.472h1.856v-5.306c.983 1.245 1.921 2.511 2.882 3.777.415.5.764 1.07 1.2 1.528h1.572v-8.45h-1.441a1.772 1.772 0 0 0 -.371-.022" fill="#ab233a" transform="translate(585.938 2635.465)"/><path d="m52.525 52.436h-1.225v1.764h1.7a1.971 1.971 0 0 0 1.048-.262.835.835 0 0 0 .022-1.245 1.555 1.555 0 0 0 -.983-.262h-.568" fill="#fff" transform="translate(591.965 2635.214)"/><path d="m32.646 52.512h-1.114v2.555h1.114a3.825 3.825 0 0 0 .873-.087 1.291 1.291 0 0 0 .852-1.638 1.245 1.245 0 0 0 -1.223-.83h-.5" fill="#fff" transform="translate(594.595 2635.204)"/><path d="m53.421 56.289h-2.121v1.834h2.3a1.362 1.362 0 0 0 1.092-.459.841.841 0 0 0 -.2-1.092 1.724 1.724 0 0 0 -1.07-.284" fill="#fff" transform="translate(591.965 2634.701)"/></g></g></svg>