<?xml version="1.0" encoding="UTF-8" standalone="no"?>
<!DOCTYPE svg PUBLIC "-//W3C//DTD SVG 20010904//EN" "http://www.w3.org/TR/2001/REC-SVG-20010904/DTD/svg10.dtd">
<svg version="1.0" xmlns="http://www.w3.org/2000/svg" width="700.000000pt" height="700.000000pt" viewBox="0 0 700.000000 700.000000" preserveAspectRatio="xMidYMid meet">
<metadata>
Created by potrace 1.11, written by Peter Selinger 2001-2013
</metadata>
<g transform="translate(0.000000,700.000000) scale(0.100000,-0.100000)" fill="#000000" stroke="none">
<path d="M3310 5609 c-88 -15 -219 -58 -305 -100 -78 -39 -205 -119 -205 -129 0 -10 112 -86 181 -123 l71 -38 44 72 c60 97 93 139 193 242 46 48 83 86 80 86 -2 -1 -29 -5 -59 -10z"/>
<path d="M3600 5612 c0 -3 40 -47 90 -98 49 -51 119 -138 156 -193 l66 -101 66 35 c69 36 182 115 182 127 0 11 -157 107 -223 137 -34 15 -91 38 -127 49 -71 24 -210 53 -210 44z"/>
<path d="M3352 5493 c-43 -43 -97 -104 -120 -135 -45 -61 -105 -159 -100 -163 13 -10 183 -47 238 -52 l70 -6 0 217 c0 119 -2 216 -5 216 -2 0 -40 -35 -83 -77z"/>
<path d="M3520 5354 l0 -217 74 6 c78 6 236 44 236 57 0 22 -129 200 -197 270 -122 128 -113 137 -113 -116z"/>
<path d="M2693 5277 c-141 -150 -244 -377 -260 -575 l-6 -72 234 2 234 3 7 75 c10 108 41 243 82 351 19 51 34 94 33 94 -98 53 -186 106 -225 135 l-50 39 -49 -52z"/>
<path d="M4135 5268 c-38 -27 -96 -63 -127 -79 -32 -16 -58 -32 -58 -35 0 -3 13 -44 30 -91 41 -116 67 -221 79 -328 6 -49 11 -93 11 -97 0 -5 103 -8 229 -8 127 0 232 3 234 8 15 25 -30 238 -73 341 -53 130 -202 340 -240 339 -8 0 -46 -22 -85 -50z"/>
<path d="M3066 5068 c-41 -94 -77 -243 -83 -345 l-6 -93 232 0 231 0 0 215 c0 165 -3 215 -12 215 -41 0 -213 32 -268 49 -36 12 -66 21 -66 21 -1 0 -13 -28 -28 -62z"/>
<path d="M3817 5114 c-46 -16 -159 -39 -239 -49 l-58 -6 0 -215 0 -214 229 0 c127 0 232 4 235 9 9 14 -13 181 -35 266 -24 93 -72 218 -85 221 -5 1 -26 -4 -47 -12z"/>
<path d="M2433 4487 c17 -195 122 -428 260 -574 l49 -52 61 46 c34 25 97 63 140 85 64 32 77 42 71 56 -52 119 -107 341 -116 472 l-3 35 -234 3 -234 2 6 -73z"/>
<path d="M2983 4468 c6 -103 42 -252 82 -345 l27 -61 46 14 c66 20 166 41 240 49 l62 7 0 214 0 214 -231 0 -232 0 6 -92z"/>
<path d="M3520 4346 l0 -214 58 -6 c80 -9 207 -35 253 -52 l39 -13 16 37 c51 121 82 246 99 405 l6 57 -235 0 -236 0 0 -214z"/>
<path d="M4066 4503 c-12 -119 -47 -277 -81 -368 -19 -51 -35 -95 -35 -98 0 -2 37 -25 83 -51 45 -25 107 -65 137 -87 l54 -42 29 34 c163 191 260 402 280 612 l6 57 -234 0 -234 0 -5 -57z"/>
<path d="M116 4238 c50 -85 150 -184 219 -218 40 -19 61 -20 819 -20 517 0 784 -3 797 -10 25 -14 24 -35 -3 -54 -20 -14 -109 -16 -760 -16 -406 0 -738 -3 -738 -8 0 -15 54 -89 104 -140 28 -30 74 -66 101 -80 l50 -27 709 -5 c670 -5 709 -6 720 -23 9 -15 7 -21 -8 -33 -17 -12 -122 -14 -688 -14 -367 0 -668 -3 -668 -6 0 -3 13 -24 29 -47 45 -66 136 -146 198 -175 l58 -27 623 -5 c535 -4 624 -7 632 -20 6 -10 4 -20 -7 -32 -15 -17 -54 -18 -610 -18 l-594 0 23 -41 c33 -58 142 -157 207 -188 l56 -26 623 -3 c404 -2 644 1 680 8 73 13 183 66 248 119 50 39 136 154 148 196 5 17 -11 28 -119 79 -232 109 -442 271 -565 435 -66 88 -135 227 -163 328 l-22 83 -1053 0 c-840 0 -1052 -3 -1046 -12z"/>
<path d="M4745 4238 c-2 -7 -11 -40 -20 -73 -83 -300 -337 -569 -713 -754 -66 -32 -126 -61 -133 -63 -21 -7 48 -122 114 -188 71 -70 189 -134 279 -150 36 -7 285 -10 680 -8 l623 3 55 26 c30 14 75 43 100 64 42 35 130 141 130 158 0 4 -264 7 -586 7 -384 0 -592 4 -605 10 -15 9 -27 43 -16 52 1 1 283 5 627 8 l625 5 57 27 c31 14 78 46 104 70 51 47 124 134 124 149 0 5 -273 9 -668 9 -566 0 -671 2 -688 14 -15 12 -17 18 -8 33 11 17 50 18 720 23 l709 5 45 23 c55 29 140 111 180 173 17 25 30 49 30 52 0 4 -332 7 -738 7 -651 0 -740 2 -760 16 -27 19 -28 40 -3 54 13 7 281 10 798 10 l779 0 52 26 c52 26 160 132 195 193 l18 31 -1051 0 c-832 0 -1051 -3 -1055 -12z"/>
<path d="M3320 4043 c-29 -4 -99 -20 -153 -34 l-37 -10 21 -42 c44 -87 157 -227 240 -296 l49 -42 0 215 0 216 -47 -1 c-27 -1 -59 -3 -73 -6z"/>
<path d="M3520 3835 c0 -118 4 -215 9 -215 19 0 184 186 241 272 33 50 60 95 60 98 0 16 -201 60 -272 60 l-38 0 0 -215z"/>
<path d="M3011 3949 c-31 -12 -211 -131 -211 -138 0 -13 135 -95 223 -136 89 -43 263 -95 314 -95 22 0 15 11 -66 95 -50 52 -118 138 -153 190 -34 52 -67 95 -72 94 -6 0 -22 -5 -35 -10z"/>
<path d="M3845 3868 c-33 -51 -102 -136 -153 -190 -109 -113 -108 -115 49 -74 101 27 141 41 234 88 68 33 185 109 185 120 0 18 -217 148 -248 148 -4 0 -35 -41 -67 -92z"/>
<path d="M3430 2747 c0 -2 -13 -71 -30 -152 -16 -81 -30 -156 -30 -167 0 -17 12 -18 190 -18 182 0 190 -1 190 -20 0 -17 -131 -889 -144 -962 l-5 -28 222 0 222 0 75 503 75 502 188 3 c103 1 187 4 187 6 0 1 14 70 30 151 17 81 30 156 30 167 0 17 -24 18 -600 18 -330 0 -600 -2 -600 -3z"/>
<path d="M1335 2718 c-17 -73 -265 -1294 -265 -1305 0 -10 47 -13 223 -13 l222 0 134 658 c74 361 136 663 139 670 3 9 -45 12 -222 12 l-226 0 -5 -22z"/>
<path d="M2437 2678 c-19 -35 -172 -336 -341 -670 l-307 -608 224 0 224 0 34 80 34 80 221 0 222 0 11 -63 c6 -35 11 -71 11 -80 0 -15 21 -17 210 -17 l210 0 -5 23 c-3 12 -64 303 -135 647 -72 344 -132 635 -135 648 -5 22 -5 22 -225 22 l-219 0 -34 -62z m228 -592 c19 -125 35 -231 35 -236 0 -6 -57 -10 -141 -10 -79 0 -139 4 -137 9 18 50 203 469 205 467 2 -2 19 -105 38 -230z"/>
<path d="M4997 2418 c-90 -178 -243 -479 -340 -670 l-175 -348 222 0 223 0 36 80 36 80 219 0 220 0 6 -27 c3 -16 8 -52 11 -80 l7 -53 209 0 209 0 -5 23 c-3 12 -64 306 -135 652 -72 347 -133 638 -136 648 -5 15 -24 17 -224 17 l-219 0 -164 -322z m364 -351 c17 -120 29 -220 27 -223 -3 -2 -66 -3 -140 -2 l-136 3 102 237 c68 160 103 231 108 220 4 -9 21 -115 39 -235z"/>
</g>
</svg>