<svg xmlns="http://www.w3.org/2000/svg" width="53.934" height="47.33" viewBox="0 0 53.934 47.33">
  <path id="Path_42" data-name="Path 42" d="M20.363,0V20.363H9.539A44.714,44.714,0,0,0,10,26.692a18.772,18.772,0,0,0,1.743,5.779,11.75,11.75,0,0,0,3.3,4.128,8.155,8.155,0,0,0,5.137,1.559V47.33a17.8,17.8,0,0,1-8.989-2.2,18.773,18.773,0,0,1-6.329-5.87,26.3,26.3,0,0,1-3.669-8.53A43.4,43.4,0,0,1,0,20.363V0ZM53.934,0V20.363H43.11a44.714,44.714,0,0,0,.459,6.329,18.772,18.772,0,0,0,1.743,5.779,11.749,11.749,0,0,0,3.3,4.128,8.155,8.155,0,0,0,5.137,1.559V47.33a17.8,17.8,0,0,1-8.989-2.2,18.773,18.773,0,0,1-6.329-5.87,26.3,26.3,0,0,1-3.669-8.53,43.4,43.4,0,0,1-1.192-10.365V0Z" fill="#ef4632"/>
</svg>