<svg height="108" viewBox="0 0 183 108" width="183" xmlns="http://www.w3.org/2000/svg" xmlns:xlink="http://www.w3.org/1999/xlink"><clipPath id="a"><path d="m470 1351h183v108h-183z"/></clipPath><clipPath id="b"><path d="m0 0h150.005v150.005h-150.005z"/></clipPath><path d="m0 0h183v108h-183z" fill="#fff"/><g clip-path="url(#a)" transform="translate(-470 -1351)"><g transform="translate(486.049 1329.549)"><g clip-path="url(#b)"><path d="m0 0h150.005v150.005h-150.005z" fill="#fff"/></g><path d="m0 0h149.794v149.794h-149.794z" fill="#fff"/><circle cx="41.478" cy="41.478" r="41.478" transform="matrix(.1601913 -.98708599 .98708599 .1601913 27.549 109.442)"/><circle cx="33.075" cy="33.075" fill="#fff" r="33.075" transform="matrix(.26431073 -.96443758 .96443758 .26431073 34.235 98.269)"/><circle cx="25.203" cy="25.203" fill="#1e32fa" r="25.203" transform="matrix(.4472128 -.89442759 .89442759 .4472128 41.208 86.324)"/><circle cx="18.176" cy="18.176" fill="#fff" r="18.176" transform="translate(56.853 56.853)"/><circle cx="11.359" cy="11.359" fill="#f04632" r="11.359" transform="matrix(.15 -.989 .989 .15 61.834 84.491)"/><circle cx="5.918" cy="5.918" fill="#fac832" r="5.918" transform="translate(68.741 69.006)"/><path d="m56.3 54.476a1.9 1.9 0 1 1 -1.9-1.9 1.894 1.894 0 0 1 1.9 1.9z" fill-rule="evenodd" transform="translate(20.418 20.448)"/></g></g></svg>