<svg height="108" viewBox="0 0 183 108" width="183" xmlns="http://www.w3.org/2000/svg" xmlns:xlink="http://www.w3.org/1999/xlink"><clipPath id="a"><path d="m0 0h183v108h-183z"/></clipPath><clipPath id="b"><path d="m0 0h158.323v158.323h-158.323z"/></clipPath><path d="m0 0h183v108h-183z" fill="#fff"/><g clip-path="url(#a)"><g transform="translate(12.776 -24.724)"><g clip-path="url(#b)"><path d="m0 0h158.323v158.323h-158.323z" fill="#fff"/></g><path d="m0 0h158.1v158.1h-158.1z" fill="#fff"/><path d="m56.34 73.365h12.491v18.794h25.04v-37.531h-37.531z" fill="#fac832" fill-rule="evenodd" transform="translate(26.252 25.454)"/><circle cx="18.793" cy="18.793" fill="#1e32fa" r="18.793" transform="matrix(.811 -.585 .585 .811 75.087 54.423)"/><path d="m26.325 92.159h25.1v-18.794h12.487v-18.737h-37.587z" fill="#1e32fa" fill-rule="evenodd" transform="translate(12.266 25.454)"/><circle cx="18.793" cy="18.793" fill="#f04632" r="18.793" transform="matrix(.17351067 -.98483199 .98483199 .17351067 35.615 73.941)"/></g></g></svg>