<svg xmlns="http://www.w3.org/2000/svg" xmlns:xlink="http://www.w3.org/1999/xlink" width="113.953" height="113.95" viewBox="0 0 113.953 113.95">
  <defs>
    <clipPath id="clip-path">
      <rect id="Rectangle_262" data-name="Rectangle 262" width="113.953" height="113.95" fill="none"/>
    </clipPath>
  </defs>
  <g id="logo_50year" transform="translate(-627 -327)">
    <g id="Group_235" data-name="Group 235" transform="translate(627 327)">
      <g id="Group_234" data-name="Group 234" clip-path="url(#clip-path)">
        <path id="Path_914" data-name="Path 914" d="M113.669,56.976A56.693,56.693,0,1,1,56.976.283a56.693,56.693,0,0,1,56.693,56.693" fill="#fff"/>
        <path id="Path_915" data-name="Path 915" d="M93.829,56.98a36.851,36.851,0,1,1-36.85-36.854A36.851,36.851,0,0,1,93.829,56.98" fill="#fac832"/>
        <path id="Path_916" data-name="Path 916" d="M37.419,75.323,33.8,69.233H35.77l2.511,4.527,2.571-4.527h1.87l-3.549,6.09v4.339H37.419Zm6.588-6.09h6.938v1.519H45.774v2.775h4.878v1.534H45.774v3.082h5.448l-.205,1.519h-7.01Zm12.064,0h1.752L61.8,79.662H59.912L58.933,77H54.887l-.964,2.659H52.1Zm2.381,6.295L56.9,71.235,55.37,75.528Zm8.179-6.295a5.8,5.8,0,0,1,1.949.278,3.249,3.249,0,0,1,1.213.723,2.465,2.465,0,0,1,.621.985,3.437,3.437,0,0,1,.175,1.066,3.337,3.337,0,0,1-.4,1.71,2.863,2.863,0,0,1-1.292,1.11l2.161,4.557H69.128l-1.869-4.148c-.087.009-.18.016-.277.021s-.2.008-.307.008h-1.87v4.119H63.067V69.233Zm.132,4.82a3.38,3.38,0,0,0,.992-.124,1.5,1.5,0,0,0,.621-.35,1.279,1.279,0,0,0,.322-.548,2.532,2.532,0,0,0,.1-.716,1.892,1.892,0,0,0-.111-.664,1.18,1.18,0,0,0-.364-.512,1.824,1.824,0,0,0-.679-.329,4.073,4.073,0,0,0-1.052-.116H64.805v3.359Zm6.849,2.425a2.055,2.055,0,0,0,.738,1.489,3.042,3.042,0,0,0,1.847.468,3.317,3.317,0,0,0,1.008-.132,1.831,1.831,0,0,0,.657-.35,1.21,1.21,0,0,0,.351-.519,1.952,1.952,0,0,0,.1-.635,1.693,1.693,0,0,0-.072-.489,1.145,1.145,0,0,0-.263-.446,1.687,1.687,0,0,0-.512-.358,3.21,3.21,0,0,0-.818-.241l-1.329-.248a9.28,9.28,0,0,1-1.4-.365,3.236,3.236,0,0,1-1.029-.577,2.276,2.276,0,0,1-.628-.877,3.347,3.347,0,0,1-.211-1.263,2.593,2.593,0,0,1,1.124-2.228,3.748,3.748,0,0,1,1.248-.554,6.4,6.4,0,0,1,1.57-.183,5.676,5.676,0,0,1,1.812.249,3.391,3.391,0,0,1,1.183.65,2.7,2.7,0,0,1,.687.927,4.342,4.342,0,0,1,.321,1.1l-1.666.263a2.323,2.323,0,0,0-.708-1.3,2.465,2.465,0,0,0-1.6-.423,4.208,4.208,0,0,0-1.045.109,1.857,1.857,0,0,0-.671.307,1.143,1.143,0,0,0-.365.453,1.508,1.508,0,0,0,.263,1.556,2.839,2.839,0,0,0,1.307.525l1.445.277A4.722,4.722,0,0,1,79.381,74.7a2.8,2.8,0,0,1,.774,2.125,3.074,3.074,0,0,1-.24,1.22,2.624,2.624,0,0,1-.738.978,3.658,3.658,0,0,1-1.234.657,5.523,5.523,0,0,1-1.716.242,5.191,5.191,0,0,1-3.141-.841,3.317,3.317,0,0,1-1.256-2.606ZM40.188,55.846q.405,3.135,3.322,3.134a3.168,3.168,0,0,0,2.536-1.016,4.343,4.343,0,0,0,.876-2.923q0-3.851-3.547-3.853a4.555,4.555,0,0,0-3.591,1.525h-7L34.4,35.308H53.072V41.7h-12.3l-.495,4.785A9.057,9.057,0,0,1,45.4,45.218a9.283,9.283,0,0,1,7,2.6,9.962,9.962,0,0,1,2.514,7.22,9.711,9.711,0,0,1-2.984,7.6q-2.988,2.688-8.418,2.688-5.208,0-8.17-2.476a9.409,9.409,0,0,1-3.232-7.01Zm29.628,9.486q-5.972,0-8.866-3.789T58.055,50q0-15.5,12.029-15.5,5.972,0,8.866,3.791t2.9,11.54q0,15.5-12.029,15.5m.134-6.648a2.639,2.639,0,0,0,2.042-.8,5.516,5.516,0,0,0,1.1-2.69,29.894,29.894,0,0,0,.359-5.271,33.159,33.159,0,0,0-.314-5.124,5.586,5.586,0,0,0-1.079-2.775,2.665,2.665,0,0,0-2.109-.868,2.637,2.637,0,0,0-2.042.805,5.525,5.525,0,0,0-1.1,2.689,29.767,29.767,0,0,0-.358,5.273,33.156,33.156,0,0,0,.313,5.123,5.565,5.565,0,0,0,1.079,2.775,2.659,2.659,0,0,0,2.109.868"/>
        <path id="Path_917" data-name="Path 917" d="M24.848,29.166a.991.991,0,0,1,1.329,0L36.71,38.671V4.028A56.777,56.777,0,0,0,14.315,19.661v19.01Z" fill="#fff"/>
        <path id="Path_918" data-name="Path 918" d="M113.557,50.336A56.963,56.963,0,1,0,56.866,113.95a57.844,57.844,0,0,0,6.746-.4,56.966,56.966,0,0,0,49.945-63.218M36.71,6.006V38.671L26.178,29.166a.991.991,0,0,0-1.329,0L14.315,38.671V22.553A54.877,54.877,0,0,1,36.71,6.006m63.3,84.971a54.848,54.848,0,0,1-77.043,9.039,54.789,54.789,0,0,1-10.64-74.863V40.9a.993.993,0,0,0,1.657.737l11.525-10.4,11.525,10.4a.993.993,0,0,0,1.657-.737V5.267a54.843,54.843,0,0,1,61.319,85.71" fill="#fac832"/>
        <path id="Path_919" data-name="Path 919" d="M52.592,12.3a4.08,4.08,0,0,1-.094,1.274,3.047,3.047,0,0,1-.506,1.094,3.114,3.114,0,0,1-.942.841,4.259,4.259,0,0,1-1.409.5A4.134,4.134,0,0,1,47.962,16a3.305,3.305,0,0,1-1.367-.656,3.906,3.906,0,0,1-1-1.256A6.278,6.278,0,0,1,45,12.3a5.973,5.973,0,0,1-.068-1.916A4.065,4.065,0,0,1,45.46,8.84a3.411,3.411,0,0,1,1.053-1.1,4.009,4.009,0,0,1,1.5-.588A4.235,4.235,0,0,1,49.421,7.1a2.767,2.767,0,0,1,1.9,1.161A4.916,4.916,0,0,1,51.9,9.35l-1.369.462a4.228,4.228,0,0,0-.375-.713,1.8,1.8,0,0,0-.476-.491,1.573,1.573,0,0,0-.626-.251,2.268,2.268,0,0,0-.814.024,2.19,2.19,0,0,0-.96.409,2.088,2.088,0,0,0-.619.779,3.1,3.1,0,0,0-.268,1.093,5.372,5.372,0,0,0,.091,1.35,5.178,5.178,0,0,0,.407,1.3,3.084,3.084,0,0,0,.653.923,2.1,2.1,0,0,0,.855.5,2.181,2.181,0,0,0,1.025.037,2.438,2.438,0,0,0,.82-.287,1.631,1.631,0,0,0,.517-.473,1.734,1.734,0,0,0,.265-.642,3.315,3.315,0,0,0,.055-.8Zm1.962-5.742,5.7.031-.007,1.248L56,7.813l-.013,2.279,4.007.022-.006,1.26-4.009-.022-.013,2.532,4.476.026-.176,1.246-5.759-.032Zm10.2.611-1.291,7.194,4.18.75-.4,1.209-5.433-.976,1.513-8.433Zm6.733,1.482,5.361,1.936-.423,1.173-4-1.443-.775,2.144,3.771,1.363-.429,1.185-3.77-1.361-.86,2.38,4.21,1.52-.582,1.117-5.418-1.956Zm8.223,3.277,2.565,1.486a5.7,5.7,0,0,1,1.241.921,2.5,2.5,0,0,1,.585.894,1.574,1.574,0,0,1,.059.866,2.913,2.913,0,0,1-.328.831,2.15,2.15,0,0,1-.71.745,1.8,1.8,0,0,1-1.139.22,2.676,2.676,0,0,1,.375.69,2.033,2.033,0,0,1,.12.631,1.721,1.721,0,0,1-.084.576,2.691,2.691,0,0,1-.233.523,3.069,3.069,0,0,1-.64.781,1.949,1.949,0,0,1-.869.432,2.614,2.614,0,0,1-1.11-.02,4.708,4.708,0,0,1-1.377-.569L75.412,19.34Zm-1,7.976a3.175,3.175,0,0,0,.791.347,1.3,1.3,0,0,0,.6.032,1.008,1.008,0,0,0,.462-.232,1.8,1.8,0,0,0,.356-.445,1.288,1.288,0,0,0,.179-1.041,1.848,1.848,0,0,0-.923-.931l-1.61-.931-1.353,2.335Zm1.949-3.365a1.746,1.746,0,0,0,1.186.327,1.163,1.163,0,0,0,.741-.61,1,1,0,0,0,.1-.959,2.472,2.472,0,0,0-1.033-.911l-1.308-.757L79.16,15.673Zm9.122,2.206a4.75,4.75,0,0,1,1.067,1.217,2.705,2.705,0,0,1,.369,1.1,2.042,2.042,0,0,1-.143.947,2.8,2.8,0,0,1-.461.757,2.738,2.738,0,0,1-1.166.85,2.33,2.33,0,0,1-1.4,0l-1.092,4-1.2-1.033L86.8,22.993c-.059-.041-.122-.086-.184-.136s-.128-.1-.195-.158l-1.164-1-2.207,2.565-1.083-.931,5.585-6.5Zm-2.5,3.073a2.7,2.7,0,0,0,.685.455,1.216,1.216,0,0,0,.573.113,1.049,1.049,0,0,0,.495-.168,2.06,2.06,0,0,0,.442-.4,1.6,1.6,0,0,0,.288-.472.952.952,0,0,0,.045-.514,1.467,1.467,0,0,0-.247-.569,3.325,3.325,0,0,0-.591-.636l-1.111-.954-1.8,2.093Zm8.876,3.5.887,1.134L92.3,34.3l-.952-1.22L92.574,31.1l-2.048-2.618-2.207.721-.926-1.181Zm-2.87,4.728,2-3.177-3.555,1.182Zm6.291,2.521-1.31-2.374,1.1-.609,3.315,6.01-1.1.608-1.3-2.363-6.4,3.529-.7-1.271Zm3.951,5.224.533,1.352-7.97,3.143-.534-1.349Zm1.64,4.248.312,1.307-5.109,5.267,6.022-1.438.329,1.378-8.334,1.987-.312-1.307,5.084-5.271-6,1.431-.326-1.366Zm-1.779,17.239-3.526.1a4.371,4.371,0,0,1-.971-1.532,5.56,5.56,0,0,1-.366-1.8,4.475,4.475,0,0,1,.267-1.754,3.344,3.344,0,0,1,.862-1.28,3.819,3.819,0,0,1,1.388-.8,6.4,6.4,0,0,1,1.85-.308,5.989,5.989,0,0,1,1.886.221,4.166,4.166,0,0,1,1.444.737,3.328,3.328,0,0,1,.936,1.2,3.977,3.977,0,0,1,.361,1.6,4.3,4.3,0,0,1-.158,1.368,2.935,2.935,0,0,1-.516,1,2.817,2.817,0,0,1-.79.671,3.69,3.69,0,0,1-.98.384l-.247-1.422a3.468,3.468,0,0,0,.636-.253,1.493,1.493,0,0,0,.463-.373,1.541,1.541,0,0,0,.278-.555,2.574,2.574,0,0,0,.077-.782,2.233,2.233,0,0,0-.265-1.043,2.058,2.058,0,0,0-.687-.73,3.037,3.037,0,0,0-1.045-.413,5.7,5.7,0,0,0-1.336-.1,5.8,5.8,0,0,0-1.35.184,2.825,2.825,0,0,0-1.013.486,2.065,2.065,0,0,0-.629.806,2.62,2.62,0,0,0-.195,1.152,4.289,4.289,0,0,0,.159,1.076,2.855,2.855,0,0,0,.464.91l1.741-.052-.058-1.9,1.225-.037Zm1.524,8.235.624-2.639,1.226.29-1.58,6.679-1.225-.29.621-2.627-7.111-1.684L97.8,65.83ZM103.144,77a4.79,4.79,0,0,1-.836,1.385,2.66,2.66,0,0,1-.937.684,2.026,2.026,0,0,1-.944.152,2.844,2.844,0,0,1-.863-.21,2.759,2.759,0,0,1-1.163-.853,2.363,2.363,0,0,1-.424-1.335l-4.139.168.62-1.457,3.738-.08c.02-.069.044-.141.072-.215s.059-.155.093-.236l.6-1.413-3.115-1.325.56-1.313,7.884,3.354Zm-3.685-1.451a2.784,2.784,0,0,0-.226.791,1.235,1.235,0,0,0,.066.582,1.047,1.047,0,0,0,.31.419,2.072,2.072,0,0,0,.512.3,1.574,1.574,0,0,0,.536.131.967.967,0,0,0,.505-.111,1.518,1.518,0,0,0,.467-.408,3.255,3.255,0,0,0,.425-.758l.575-1.347-2.539-1.08Zm-.718,9.522-.82,1.184-8.9-2.195.881-1.272,2.254.582,1.893-2.733L92.7,78.741l.855-1.233Zm-5.366-1.336L97,84.695l-2.182-3.044ZM94.434,90.6l-.984,1.067-6.294-5.814.984-1.067Zm-3.148,3.352-1.045.845-6.956-2.332,3.9,4.811-1.1.891-5.395-6.656,1.044-.847,6.95,2.307L84.8,88.18l1.09-.885ZM83.422,99.8l-1.246.744-4.4-7.355,1.246-.745Zm-3.932,2.308-1.24.518-6.023-4.19,2.392,5.711-1.306.547L70,96.792l1.24-.519,6.023,4.164-2.382-5.69,1.294-.542Zm-17.281,1.038-.679-3.463a4.376,4.376,0,0,1,1.353-1.206,5.488,5.488,0,0,1,1.718-.655,4.492,4.492,0,0,1,1.774-.025,3.379,3.379,0,0,1,1.4.643,3.793,3.793,0,0,1,1.013,1.238,6.368,6.368,0,0,1,.605,1.777,6,6,0,0,1,.091,1.9A4.153,4.153,0,0,1,69,104.9a3.345,3.345,0,0,1-1.028,1.119,3.98,3.98,0,0,1-1.518.615,4.237,4.237,0,0,1-1.375.069,2.938,2.938,0,0,1-1.07-.347,2.817,2.817,0,0,1-.792-.671,3.641,3.641,0,0,1-.538-.9l1.362-.474a3.543,3.543,0,0,0,.354.584,1.451,1.451,0,0,0,.444.4,1.519,1.519,0,0,0,.592.183,2.573,2.573,0,0,0,.785-.05,2.236,2.236,0,0,0,.985-.431,2.051,2.051,0,0,0,.608-.8,3.021,3.021,0,0,0,.237-1.1,5.669,5.669,0,0,0-.115-1.335,5.779,5.779,0,0,0-.4-1.3,2.822,2.822,0,0,0-.645-.919,2.066,2.066,0,0,0-.9-.491,2.617,2.617,0,0,0-1.168,0,4.216,4.216,0,0,0-1.036.331,2.864,2.864,0,0,0-.822.608l.335,1.707,1.86-.363.235,1.2Zm-5.889,4.246-5.688-.373.082-1.245,4.238.277.149-2.275-4-.262.082-1.257,4,.262.165-2.526L50.882,99.7l.251-1.235,5.747.376Zm-10.059-5.354,1.687,4.611-1.6-.413-1.157-3.4-2.678,2.408L41,104.86l3.7-3.286-1.885-5.1,1.616.415,1.363,3.847,2.983-2.727,1.522.393ZM34.773,95.927a4.082,4.082,0,0,1,.815-.984,3.062,3.062,0,0,1,1.045-.6,3.122,3.122,0,0,1,1.256-.138,4.266,4.266,0,0,1,1.437.411,4.126,4.126,0,0,1,1.364.977,3.292,3.292,0,0,1,.733,1.326,3.92,3.92,0,0,1,.09,1.6,6.239,6.239,0,0,1-.553,1.8,5.947,5.947,0,0,1-1.053,1.6,4.057,4.057,0,0,1-1.323.953,3.426,3.426,0,0,1-1.5.285,4,4,0,0,1-1.564-.39A4.23,4.23,0,0,1,34.347,102a2.853,2.853,0,0,1-.664-.949,2.813,2.813,0,0,1-.217-1.1,4.935,4.935,0,0,1,.164-1.222l1.38.417a4.445,4.445,0,0,0-.106.8,1.783,1.783,0,0,0,.1.677,1.588,1.588,0,0,0,.364.567,2.329,2.329,0,0,0,.676.452,2.207,2.207,0,0,0,1.022.224,2.109,2.109,0,0,0,.955-.278,3.05,3.05,0,0,0,.851-.736A5.769,5.769,0,0,0,40.009,98.4a3.085,3.085,0,0,0,0-1.13,2.089,2.089,0,0,0-.407-.9,2.193,2.193,0,0,0-.815-.625,2.464,2.464,0,0,0-.834-.241,1.6,1.6,0,0,0-.7.087,1.7,1.7,0,0,0-.588.368,3.217,3.217,0,0,0-.506.62Zm-4.913,3.58L25.218,96.2l.723-1.017,3.46,2.465,1.322-1.857-3.264-2.326.731-1.026,3.264,2.325,1.47-2.061-3.646-2.6.861-.919,4.692,3.342Zm-7.989-6.374L27.07,88l-2.987-3.02,1.022-.758,3.881,3.926-6.095,6.022ZM16.4,86.866l5.975-4.208-2.447-3.473,1.135-.578,3.178,4.512-7,4.934Zm-3.759-5.8-2.454-5.145,1.126-.537,1.829,3.834,2.058-.981-1.725-3.619,1.138-.542,1.725,3.618,2.285-1.09-1.927-4.04,1.2-.386,2.479,5.2ZM9.045,72.895,8.7,71.6,13.7,66.221,7.71,67.787l-.359-1.37,8.29-2.167.339,1.3L11.011,70.93l5.968-1.56.356,1.359ZM12.1,55.479a4.088,4.088,0,0,1,1.252.257,3.031,3.031,0,0,1,1.73,1.687,4.275,4.275,0,0,1,.313,1.461,4.136,4.136,0,0,1-.224,1.664,3.305,3.305,0,0,1-.827,1.27,3.967,3.967,0,0,1-1.375.831,6.288,6.288,0,0,1-1.849.356,5.927,5.927,0,0,1-1.909-.18A4.094,4.094,0,0,1,7.744,62.1a3.41,3.41,0,0,1-.952-1.188A4,4,0,0,1,6.4,59.351a4.268,4.268,0,0,1,.131-1.4,2.768,2.768,0,0,1,1.4-1.739,4.859,4.859,0,0,1,1.156-.427L9.363,57.2a4.328,4.328,0,0,0-.754.28,1.811,1.811,0,0,0-.549.407,1.6,1.6,0,0,0-.33.589,2.284,2.284,0,0,0-.081.809,2.192,2.192,0,0,0,.28,1.007,2.1,2.1,0,0,0,.694.714,3.045,3.045,0,0,0,1.049.407,5.3,5.3,0,0,0,1.35.084,5.231,5.231,0,0,0,1.346-.234,3.086,3.086,0,0,0,1-.527,2.11,2.11,0,0,0,.608-.783,2.194,2.194,0,0,0,.167-1.013,2.436,2.436,0,0,0-.177-.85,1.631,1.631,0,0,0-.4-.574,1.723,1.723,0,0,0-.6-.346,3.232,3.232,0,0,0-.784-.156ZM6.656,52.807l.771-5.647,1.236.168-.574,4.209,2.258.308.543-3.971,1.249.172-.543,3.97,2.509.343.605-4.435,1.215.335-.78,5.707Z"/>
      </g>
    </g>
  </g>
</svg>