<svg xmlns="http://www.w3.org/2000/svg" width="66.032" height="41.276" viewBox="0 0 66.032 41.276">
  <path id="Path_912" data-name="Path 912" d="M50.046,42.315A11.9,11.9,0,0,0,53.1,38.561a9.9,9.9,0,0,0-3.052-.54Zm-.756-.045a11.01,11.01,0,0,1-3.079-3.709,9.156,9.156,0,0,1,3.079-.54Zm.756-19.157A11.7,11.7,0,0,1,53.1,26.831a9.471,9.471,0,0,1-3.052.567Zm-.756,0a11.784,11.784,0,0,0-3.079,3.718,10.182,10.182,0,0,0,3.079.567Zm.756,14.143v-4.2H54.6a11.433,11.433,0,0,1-1.143,4.861,11.649,11.649,0,0,0-3.412-.666m9.9-4.2H55.393a13.45,13.45,0,0,1-1.215,5.149,11.874,11.874,0,0,1,2.7,1.683,10.2,10.2,0,0,0,3.079-6.833m-3.6,7.31a9.462,9.462,0,0,0-2.521-1.521,13.954,13.954,0,0,1-3.115,3.835,11.109,11.109,0,0,0,5.635-2.314m-7.049-3.115v-4.2h-4.6a11.577,11.577,0,0,0,1.143,4.861,11.6,11.6,0,0,1,3.439-.666m-9.966-4.2h4.591a13.954,13.954,0,0,0,1.251,5.149,11.2,11.2,0,0,0-2.755,1.683,10.245,10.245,0,0,1-3.088-6.833m3.6,7.31a10.119,10.119,0,0,1,2.53-1.521,13.792,13.792,0,0,0,3.115,3.835,11.01,11.01,0,0,1-5.644-2.314M50.01,28.136v4.2h4.555a11.568,11.568,0,0,0-1.107-4.861,11.37,11.37,0,0,1-3.412.675m9.9,4.2H55.393a13.7,13.7,0,0,0-1.215-5.113,12.757,12.757,0,0,0,2.7-1.692,9.9,9.9,0,0,1,3.079,6.806m-3.6-7.31a9.7,9.7,0,0,1-2.539,1.539A14.016,14.016,0,0,0,50.7,22.69a11.127,11.127,0,0,1,5.635,2.323M49.29,28.127v4.2H44.707a11.847,11.847,0,0,1,1.143-4.861,11.325,11.325,0,0,0,3.439.675m-9.966,4.186h4.591a13.6,13.6,0,0,1,1.251-5.113,11.8,11.8,0,0,1-2.755-1.692,10.074,10.074,0,0,0-3.088,6.806m3.6-7.31a9.318,9.318,0,0,0,2.566,1.548,13.7,13.7,0,0,1,3.115-3.88,11.118,11.118,0,0,0-5.644,2.323M16.647,36.05H37.262c.756,3.682,3.376,6.743,8.588,8.867a5.311,5.311,0,0,1-4.726,3.367H29.962a4.384,4.384,0,0,1-3.6-2.512H37.722c.693-.126.72-.666,0-.729H26.577a4.5,4.5,0,0,1-3.5-2.512H36.083c.657-.1.657-.639,0-.729H22.976c-1.314,0-2.521-1.494-3.016-2.512h14.4c.72-.1.72-.729,0-.765h-14.7c-1.143,0-2.26-1.206-3.043-2.476m66.005,0H62.046c-.756,3.682-3.385,6.743-8.588,8.867a5.293,5.293,0,0,0,4.717,3.367H69.347a4.393,4.393,0,0,0,3.6-2.512H61.587c-.693-.126-.729-.666,0-.729h11.19c1.44,0,2.7-1.206,3.5-2.512H63.225c-.657-.1-.657-.639,0-.729H76.378c1.314,0,2.521-1.494,3.016-2.512H64.99c-.72-.1-.72-.729,0-.765H79.61c1.152,0,2.26-1.206,3.043-2.476M59.435,63.957l6.626-13.08h4.33l2.7,13.089H69.014l-.189-1.557H64.486l-.711,1.539Zm6.14-4.294h2.782l-.72-4.8ZM50.829,63.948,52.341,54.1H48.47l.657-3.3h11.82l-.657,3.3h-3.6l-1.521,9.849Zm-17.717,0,6.626-13.071h4.33l2.7,13.089H42.727l-.234-1.557h-4.33l-.684,1.557Zm6.14-4.285h2.791l-.729-4.8ZM26.018,63.948l2.7-13.089h4.4L30.466,63.948Z" transform="translate(-16.62 -22.69)" fill="#fff"/>
</svg>