<svg height="44.009" viewBox="0 0 151.786 44.009" width="151.786" xmlns="http://www.w3.org/2000/svg"><path d="m185.488 9.02h-88.188v43.987h101.114v-30.79z" fill="#fff" transform="translate(-46.627 -9.009)"/><path d="m185.042 10.072 12.311 12.571v29.294h-98.992v-41.865zm.446-1.072h-88.188v44.009h101.114v-30.8z" fill="#0d32ff" transform="translate(-46.627 -9)"/><path d="m0 .011h51.711v43.987h-51.711z" fill="#0d32ff"/><path d="m37.569 34.99a7.459 7.459 0 0 0 1.913-2.353 6.207 6.207 0 0 0 -1.913-.339zm-.474-.028a6.9 6.9 0 0 1 -1.93-2.325 5.738 5.738 0 0 1 1.935-.337zm.474-12.007a7.335 7.335 0 0 1 1.913 2.33 5.936 5.936 0 0 1 -1.913.355zm-.474 0a7.386 7.386 0 0 0 -1.93 2.33 6.382 6.382 0 0 0 1.93.355zm.474 8.864v-2.629h2.855a7.166 7.166 0 0 1 -.717 3.047 7.3 7.3 0 0 0 -2.138-.418m6.206-2.629h-2.854a8.43 8.43 0 0 1 -.762 3.227 7.442 7.442 0 0 1 1.693 1.055 6.393 6.393 0 0 0 1.93-4.282m-2.257 4.581a5.93 5.93 0 0 0 -1.58-.954 8.746 8.746 0 0 1 -1.952 2.4 6.963 6.963 0 0 0 3.532-1.45m-4.418-1.952v-2.625h-2.883a7.256 7.256 0 0 0 .717 3.047 7.267 7.267 0 0 1 2.155-.418m-6.246-2.629h2.878a8.745 8.745 0 0 0 .784 3.227 7.019 7.019 0 0 0 -1.727 1.055 6.421 6.421 0 0 1 -1.935-4.282m2.257 4.581a6.342 6.342 0 0 1 1.585-.954 8.644 8.644 0 0 0 1.952 2.4 6.9 6.9 0 0 1 -3.538-1.45m4.44-7.668v2.629h2.854a7.25 7.25 0 0 0 -.694-3.047 7.126 7.126 0 0 1 -2.138.423m6.206 2.629h-2.853a8.587 8.587 0 0 0 -.762-3.2 8 8 0 0 0 1.693-1.061 6.206 6.206 0 0 1 1.93 4.266m-2.257-4.581a6.077 6.077 0 0 1 -1.591.965 8.785 8.785 0 0 0 -1.952-2.432 6.974 6.974 0 0 1 3.532 1.456m-4.414 1.954v2.635h-2.876a7.425 7.425 0 0 1 .717-3.047 7.1 7.1 0 0 0 2.155.423m-6.246 2.622h2.878a8.525 8.525 0 0 1 .784-3.2 7.4 7.4 0 0 1 -1.727-1.061 6.314 6.314 0 0 0 -1.935 4.265m2.257-4.581a5.84 5.84 0 0 0 1.608.97 8.587 8.587 0 0 1 1.952-2.432 6.968 6.968 0 0 0 -3.538 1.456m-16.492 6.913h12.921c.474 2.308 2.116 4.226 5.383 5.558a3.329 3.329 0 0 1 -2.962 2.11h-7a2.748 2.748 0 0 1 -2.257-1.574h7.12c.434-.079.451-.418 0-.457h-6.982a2.818 2.818 0 0 1 -2.195-1.574h8.153c.412-.062.412-.4 0-.457h-8.218c-.824 0-1.58-.937-1.89-1.574h9.028c.451-.062.451-.457 0-.48h-9.211c-.717 0-1.416-.756-1.907-1.552m41.369 0h-12.9c-.474 2.308-2.121 4.226-5.383 5.558a3.318 3.318 0 0 0 2.957 2.11h7a2.753 2.753 0 0 0 2.257-1.574h-7.12c-.434-.079-.457-.418 0-.457h7.013a2.871 2.871 0 0 0 2.195-1.574h-8.178c-.412-.062-.412-.4 0-.457h8.243c.824 0 1.58-.937 1.89-1.574h-9.027c-.451-.062-.451-.457 0-.48h9.164c.722 0 1.416-.756 1.907-1.552m-14.553 17.491 4.153-8.2h2.714l1.693 8.2h-2.556l-.118-.976h-2.72l-.446.965zm3.846-2.691h1.743l-.451-3.007zm-9.24 2.685.948-6.173h-2.426l.412-2.071h7.406l-.412 2.071h-2.255l-.954 6.173zm-11.1 0 4.153-8.192h2.714l1.693 8.2h-2.538l-.147-.976h-2.713l-.429.976zm3.84-2.685h1.749l-.449-3.008zm-8.29 2.685 1.693-8.2h2.759l-1.664 8.2z" fill="#fff" transform="translate(-11.469 -14.966)"/><g fill="#0d32ff"><path d="m114.349 39.707h-5.749v-2h13.767v2h-5.755v15.387h-2.257z" transform="translate(-51.552 -21.511)"/><path d="m135.79 46.039h2.093v1.952a5.214 5.214 0 0 1 1.659-1.608 3.91 3.91 0 0 1 2.02-.564 5.371 5.371 0 0 1 1.128.1l-.271 1.969-.485-.085a3.949 3.949 0 0 0 -.536-.034 3.774 3.774 0 0 0 -1.2.2 3.318 3.318 0 0 0 -1.128.694 3.385 3.385 0 0 0 -.841 1.072 3.132 3.132 0 0 0 -.3 1.416v7.476h-2.121z" transform="translate(-63.401 -25.045)"/><path d="m157.942 56.747a6.161 6.161 0 0 1 -1.727 1.433 5.18 5.18 0 0 1 -2.607.564 6.093 6.093 0 0 1 -1.743-.231 3.713 3.713 0 0 1 -1.36-.705 3.194 3.194 0 0 1 -.891-1.179 4.069 4.069 0 0 1 -.316-1.659 3.639 3.639 0 0 1 .564-2.093 3.837 3.837 0 0 1 1.461-1.264 7.115 7.115 0 0 1 2.059-.66 18.614 18.614 0 0 1 2.358-.243l2.167-.073v-.485a3.25 3.25 0 0 0 -.683-2.313 2.974 2.974 0 0 0 -2.212-.705 3.882 3.882 0 0 0 -2.217.5 2.336 2.336 0 0 0 -.925 1.377l-1.924-.22a3.6 3.6 0 0 1 1.631-2.516 6.663 6.663 0 0 1 3.509-.8 6.99 6.99 0 0 1 2.3.333 3.769 3.769 0 0 1 1.518.937 3.526 3.526 0 0 1 .841 1.506 7.481 7.481 0 0 1 .255 2.024v8.2h-2.042zm-.051-4.576-2.02.073a12.068 12.068 0 0 0 -2.144.243 4.148 4.148 0 0 0 -1.348.525 1.828 1.828 0 0 0 -.705.812 2.821 2.821 0 0 0 -.209 1.128 2.054 2.054 0 0 0 .564 1.518 2.6 2.6 0 0 0 1.89.564 4.282 4.282 0 0 0 2.923-.925 3.216 3.216 0 0 0 1.044-2.533z" transform="translate(-69.286 -24.891)"/><path d="m173 37.71h2.257v2.46h-2.257zm.073 4.8h2.121v12.584h-2.121z" transform="translate(-79.616 -21.511)"/><path d="m181.92 45.909h2.093v1.924a5.75 5.75 0 0 1 2.048-1.777 5.428 5.428 0 0 1 2.364-.536 4.018 4.018 0 0 1 3.177 1.174 5.007 5.007 0 0 1 1.033 3.43v8.376h-2.116v-7.964a3.782 3.782 0 0 0 -.632-2.471 2.488 2.488 0 0 0 -1.952-.717 4.175 4.175 0 0 0 -1.4.243 3.481 3.481 0 0 0 -1.253.779 4.12 4.12 0 0 0 -.925 1.128 3.312 3.312 0 0 0 -.316 1.546v7.448h-2.121z" transform="translate(-83.503 -24.915)"/><path d="m205.62 37.71h2.257v2.46h-2.257zm.068 4.8h2.121v12.584h-2.121z" transform="translate(-93.831 -21.511)"/><path d="m214.51 45.909h2.09v1.924a5.693 5.693 0 0 1 2.042-1.777 5.428 5.428 0 0 1 2.364-.536 4.024 4.024 0 0 1 3.177 1.174 5.026 5.026 0 0 1 1.033 3.43v8.376h-2.116v-7.964a3.749 3.749 0 0 0 -.632-2.471 2.483 2.483 0 0 0 -1.947-.717 4.181 4.181 0 0 0 -1.4.243 3.481 3.481 0 0 0 -1.253.779 4.119 4.119 0 0 0 -.925 1.128 3.312 3.312 0 0 0 -.316 1.546v7.448h-2.117z" transform="translate(-97.705 -24.915)"/><path d="m239.986 59.675a2.5 2.5 0 0 0 1.033 1.631 4.621 4.621 0 0 0 2.4.485 3.105 3.105 0 0 0 2.765-1.128 5.642 5.642 0 0 0 .767-3.227v-1.316a5.23 5.23 0 0 1 -1.766 1.58 5.01 5.01 0 0 1 -2.421.564 5.3 5.3 0 0 1 -2.375-.5 4.706 4.706 0 0 1 -1.693-1.365 6.01 6.01 0 0 1 -.982-2.009 8.821 8.821 0 0 1 -.333-2.46 8.362 8.362 0 0 1 .389-2.618 5.852 5.852 0 0 1 1.13-2.012 5.022 5.022 0 0 1 1.766-1.3 5.682 5.682 0 0 1 2.325-.463 5.5 5.5 0 0 1 2.082.429 4.514 4.514 0 0 1 1.885 1.569v-1.622h2.093v10.546a16.5 16.5 0 0 1 -.231 2.934 5.573 5.573 0 0 1 -.813 2.2 3.949 3.949 0 0 1 -1.693 1.4 7.035 7.035 0 0 1 -2.821.485 7.3 7.3 0 0 1 -3.9-.886 3.752 3.752 0 0 1 -1.653-2.934zm7.014-7.939a6.467 6.467 0 0 0 -.293-2.082 3.736 3.736 0 0 0 -.807-1.377 2.985 2.985 0 0 0 -1.157-.79 4.305 4.305 0 0 0 -1.4-.231 4.057 4.057 0 0 0 -1.45.254 3.036 3.036 0 0 0 -1.168.818 3.893 3.893 0 0 0 -.779 1.439 6.987 6.987 0 0 0 -.282 2.116 6.585 6.585 0 0 0 .3 2.144 4.018 4.018 0 0 0 .8 1.411 2.906 2.906 0 0 0 1.128.779 3.628 3.628 0 0 0 1.3.243 4.277 4.277 0 0 0 1.523-.265 3.227 3.227 0 0 0 1.2-.807 3.752 3.752 0 0 0 .835-1.326 5.729 5.729 0 0 0 .293-1.913z" transform="translate(-107.671 -24.919)"/></g></svg>